<svg xmlns="http://www.w3.org/2000/svg" width="2500" height="1600" viewBox="0 0 2500 1600" version="1.1"><path d="M 1945 565.059 C 1945 565.641, 1945.433 565.850, 1945.962 565.523 C 1946.491 565.196, 1948.162 566.857, 1949.674 569.214 C 1958.420 582.848, 1970.914 594.885, 1985.948 604.160 C 1989.817 606.547, 1992.987 608.816, 1992.991 609.203 C 1992.996 609.590, 1991.088 610.762, 1988.750 611.808 C 1986.412 612.854, 1983.600 614.772, 1982.500 616.070 C 1980.680 618.217, 1980.790 618.193, 1983.725 615.801 C 1985.498 614.355, 1988.536 612.648, 1990.475 612.008 C 1992.414 611.368, 1994 610.224, 1994 609.465 C 1994 608.705, 1991.886 606.845, 1989.302 605.331 C 1974.571 596.698, 1960.220 583.576, 1952.449 571.632 C 1948.001 564.796, 1945 562.148, 1945 565.059 M 2392.494 566.250 C 2392.195 567.487, 2392.074 614.850, 2392.225 671.500 L 2392.500 774.500 2412.472 774.772 C 2423.456 774.921, 2433.095 774.794, 2433.892 774.488 C 2434.987 774.068, 2434.476 773.026, 2431.800 770.216 C 2429.853 768.172, 2427.765 765.600, 2427.160 764.500 C 2426.556 763.400, 2426.047 763.073, 2426.030 763.772 C 2426.014 764.472, 2427.857 767.060, 2430.127 769.522 L 2434.255 774 2413.627 774 L 2393 774 2393 670.059 C 2393 609.652, 2393.376 565.885, 2393.899 565.563 C 2394.393 565.257, 2396.956 568.493, 2399.595 572.754 C 2405.750 582.693, 2419.027 595.777, 2430.796 603.500 C 2439.909 609.480, 2441.447 611, 2438.386 611 C 2433.841 611, 2425.923 618.153, 2426.039 622.154 C 2426.061 622.894, 2426.674 622.150, 2427.403 620.500 C 2429.133 616.579, 2431.988 614.112, 2436.649 612.510 C 2438.728 611.795, 2440.567 610.800, 2440.734 610.299 C 2440.901 609.798, 2436.455 606.289, 2430.855 602.501 C 2418.052 593.840, 2408.052 583.982, 2400.677 572.750 C 2397.517 567.938, 2394.505 564, 2393.985 564 C 2393.464 564, 2392.793 565.013, 2392.494 566.250 M 1490.883 569.250 C 1483.718 583.367, 1467.492 599.652, 1452.232 608.042 C 1447.849 610.452, 1447.196 612.315, 1450.583 612.742 C 1452.414 612.972, 1452.412 612.946, 1450.537 612.154 C 1448.713 611.383, 1448.783 611.197, 1451.537 609.510 C 1462.205 602.977, 1466.379 599.836, 1473.357 593.093 C 1477.678 588.917, 1483.136 582.800, 1485.485 579.500 C 1489.763 573.491, 1494.480 565, 1493.541 565 C 1493.266 565, 1492.070 566.913, 1490.883 569.250 M 1496 663.300 L 1496.500 761.500 1496.755 664.055 C 1496.895 610.460, 1496.670 566.270, 1496.255 565.855 C 1495.840 565.440, 1495.725 609.290, 1496 663.300 M 1520.607 566.582 C 1520.273 567.452, 1520 613.941, 1520 669.891 C 1520 750.298, 1520.265 771.980, 1521.264 773.346 C 1522.352 774.834, 1523.992 775.030, 1533.014 774.748 L 1543.500 774.422 1532.769 774.211 C 1522.550 774.010, 1522.012 773.893, 1521.494 771.750 C 1520.462 767.478, 1521.446 567.009, 1522.500 566.839 C 1523.050 566.751, 1526.110 570.551, 1529.300 575.282 C 1536.452 585.892, 1548.142 597.037, 1560.008 604.560 C 1564.954 607.695, 1569 610.618, 1569 611.057 C 1569 611.495, 1568.213 612.059, 1567.250 612.311 C 1565.610 612.739, 1565.612 612.775, 1567.281 612.884 C 1569.249 613.012, 1571.001 609.834, 1569.279 609.260 C 1568.685 609.062, 1563.992 606.134, 1558.849 602.753 C 1547.198 595.094, 1534.900 582.894, 1528.604 572.750 C 1523.849 565.091, 1521.789 563.502, 1520.607 566.582 M 2366 572.151 C 2357.235 585.982, 2341.879 600.219, 2327.064 608.251 C 2323.636 610.110, 2323.376 612.435, 2326.578 612.598 C 2328.143 612.678, 2328.175 612.619, 2326.750 612.279 C 2323.913 611.601, 2324.719 610.184, 2329.250 607.880 C 2341.569 601.615, 2357.232 587.007, 2366.300 573.324 C 2368.915 569.377, 2371.605 565.925, 2372.277 565.653 C 2373.074 565.330, 2372.978 565.139, 2372 565.105 C 2371.175 565.075, 2368.475 568.246, 2366 572.151 M 1662.924 576.692 C 1650.975 592.421, 1640.991 601.401, 1628.250 607.880 C 1624.276 609.900, 1622.650 612, 1625.059 612 C 1625.641 612, 1625.860 611.582, 1625.544 611.072 C 1625.229 610.562, 1625.908 609.847, 1627.052 609.483 C 1631.457 608.085, 1646.992 596.776, 1652.128 591.228 C 1655.089 588.030, 1660.186 581.833, 1663.455 577.457 C 1669.307 569.623, 1670.775 568.046, 1672.242 568.015 C 1672.650 568.007, 1673.105 593.538, 1673.254 624.750 L 1673.525 681.500 1673.513 624.514 C 1673.501 573.435, 1673.337 567.496, 1671.924 567.224 C 1670.921 567.031, 1667.645 570.477, 1662.924 576.692 M 1426.436 581.061 C 1432.079 582.006, 1435.493 584.216, 1438.839 589.092 C 1440.769 591.905, 1441.109 593.471, 1440.788 598.065 C 1440.094 608.001, 1433.510 613.688, 1423.785 612.753 C 1417.696 612.168, 1414.175 609.703, 1411.250 603.980 C 1410.013 601.558, 1409 600.280, 1409 601.140 C 1409 603.349, 1412.982 608.932, 1416.323 611.408 C 1418.481 613.007, 1420.621 613.500, 1425.401 613.500 C 1430.753 613.500, 1432.201 613.084, 1435.434 610.618 C 1442.328 605.360, 1444.025 596.132, 1439.514 588.434 C 1436.650 583.546, 1430.316 579.933, 1424.934 580.118 C 1421.994 580.218, 1422.209 580.354, 1426.436 581.061 M 1389.980 583.250 C 1395.714 586.180, 1398.168 589.698, 1398.758 595.829 C 1399.644 605.054, 1393.678 611.802, 1383.500 613.087 L 1378.500 613.718 1383 613.843 C 1388.887 614.005, 1394.745 610.689, 1397.771 605.480 C 1400.645 600.533, 1400.434 592.410, 1397.322 588.209 C 1394.920 584.966, 1389.319 581, 1387.140 581 C 1386.280 581, 1387.558 582.013, 1389.980 583.250 M 2183.629 583.494 C 2193.752 589.562, 2193.582 604.644, 2183.323 610.657 C 2175.081 615.486, 2164.840 612.262, 2160.905 603.599 C 2159.882 601.345, 2159.034 600.085, 2159.022 600.800 C 2158.979 603.326, 2162.042 607.930, 2165.541 610.599 C 2172.738 616.088, 2183.161 614.589, 2188.750 607.262 C 2192.291 602.619, 2192.975 594.061, 2190.209 589 C 2188.346 585.591, 2182.815 580.990, 2180.602 581.009 C 2179.996 581.015, 2181.358 582.133, 2183.629 583.494 M 251.593 591.108 C 249.067 593.918, 247 596.618, 247 597.108 C 247 598.154, 432.315 598.352, 433.359 597.308 C 433.740 596.927, 431.693 594.227, 428.810 591.308 L 423.568 586 339.877 586 L 256.185 586 251.593 591.108 M 252.168 592.045 L 247.836 597 340.130 597 L 432.425 597 427.500 592 L 422.575 587 339.538 587.045 L 256.500 587.090 252.168 592.045 M 1221.141 596.790 C 1220.833 606.164, 1227.405 613.180, 1236.908 613.622 L 1242.500 613.882 1236.988 613.098 C 1233.956 612.667, 1230.443 611.681, 1229.181 610.907 C 1225.684 608.763, 1222.586 603.058, 1221.899 597.500 L 1221.282 592.500 1221.141 596.790 M 754.702 601.742 C 752.206 614.220, 733.746 616.983, 726.250 606.001 C 725.013 604.188, 724 603.186, 724 603.775 C 724 604.365, 725.216 606.292, 726.703 608.059 C 733.367 615.978, 745.633 615.978, 752.297 608.059 C 754.927 604.933, 756.738 600.405, 755.752 599.419 C 755.484 599.150, 755.011 600.196, 754.702 601.742 M 176.208 608.288 C 173.894 610.646, 172 612.896, 172 613.288 C 172 613.680, 234.550 614, 311 614 C 387.450 614, 450 613.644, 450 613.208 C 450 612.773, 448.070 610.523, 445.712 608.208 L 441.424 604 310.920 604 L 180.416 604 176.208 608.288 M 177.194 609.018 L 173.887 613 311.146 613 L 448.406 613 444.500 609 L 440.594 605 310.547 605.018 L 180.500 605.036 177.194 609.018 M 2333.059 615.703 C 2339.124 620.806, 2339 619.397, 2339 683.395 C 2339 738.229, 2338.891 741.882, 2337.250 742.311 C 2335.933 742.655, 2336.057 742.797, 2337.750 742.884 L 2340 743 2340 683.968 C 2340 635.852, 2339.743 624.321, 2338.611 621.611 C 2337.246 618.344, 2332.326 613, 2330.683 613 C 2330.223 613, 2331.292 614.216, 2333.059 615.703 M 799.828 623.779 C 786.877 638.665, 771.426 652.162, 752.889 664.784 C 747.175 668.675, 740.349 673.920, 737.721 676.440 C 732.963 681.002, 726.960 689.439, 727.044 691.446 C 727.069 692.026, 727.935 690.898, 728.971 688.940 C 732.476 682.309, 740.298 674.856, 753.838 665.242 C 775.679 649.734, 790.741 636.199, 804.739 619.500 L 808.930 614.500 808.965 678.215 C 808.999 740.166, 809.054 741.958, 810.934 742.965 C 811.998 743.534, 813.686 743.959, 814.684 743.910 C 815.683 743.860, 815.038 743.397, 813.250 742.881 L 810 741.943 810 678.530 C 810 643.654, 809.614 614.880, 809.143 614.588 C 808.672 614.297, 804.480 618.433, 799.828 623.779 M 178.500 626 L 184.437 632 251 632 L 317.563 632 323.500 626 L 329.437 620 251 620 L 172.563 620 178.500 626 M 180.500 626 L 185.425 631 251.500 631 L 317.575 631 322.500 626 L 327.425 621 251.500 621 L 175.575 621 180.500 626 M 1554.237 692.703 C 1554.065 743.720, 1554.313 763.592, 1555.144 765.417 C 1555.773 766.798, 1558.102 769.181, 1560.319 770.714 L 1564.350 773.500 1560.925 774.118 L 1557.500 774.737 1561.250 774.868 C 1563.313 774.941, 1565 774.687, 1565 774.304 C 1565 773.921, 1562.862 771.727, 1560.250 769.429 L 1555.500 765.249 1554.987 693.875 L 1554.474 622.500 1554.237 692.703 M 1463.466 676.500 C 1463.466 705.650, 1463.593 717.431, 1463.749 702.680 C 1463.905 687.928, 1463.905 664.078, 1463.749 649.680 C 1463.593 635.281, 1463.465 647.350, 1463.466 676.500 M 1640.242 683.220 L 1640 741.940 1627.250 742.253 L 1614.500 742.565 1627.281 742.783 C 1636.750 742.944, 1640.187 742.676, 1640.541 741.750 C 1640.804 741.063, 1640.899 714.400, 1640.751 682.500 L 1640.483 624.500 1640.242 683.220 M 2425.473 693.500 C 2425.473 731.450, 2425.598 746.830, 2425.750 727.677 C 2425.902 708.524, 2425.902 677.474, 2425.749 658.677 C 2425.597 639.880, 2425.473 655.550, 2425.473 693.500 M 1978.214 652.884 C 1978.065 671.967, 1978.367 681.516, 1979.211 684.384 C 1980.486 688.720, 1990.655 700.052, 1993.170 699.941 C 1993.982 699.905, 1993.751 699.418, 1992.579 698.691 C 1988.275 696.022, 1983.097 690.734, 1981.353 687.227 C 1979.721 683.944, 1979.436 680.043, 1978.964 654.500 L 1978.427 625.500 1978.214 652.884 M 227.500 644 L 232.425 649 358.712 649 C 428.171 649, 485 648.644, 485 648.208 C 485 647.773, 482.975 645.429, 480.500 643 C 475.111 637.711, 474.530 638.367, 479.616 643.997 L 483.233 648 357.700 648 L 232.168 648 229.009 644.011 L 225.850 640.023 266.675 639.750 L 307.500 639.477 265.038 639.238 L 222.575 639 227.500 644 M 1351.699 649.750 C 1341.329 662.165, 1326.626 675.761, 1310.500 687.844 C 1292.389 701.415, 1283.247 710.183, 1279.104 717.956 C 1277.397 721.159, 1276.010 724.167, 1276.023 724.640 C 1276.035 725.113, 1277.618 722.581, 1279.540 719.014 C 1284.313 710.155, 1290.806 703.813, 1309 690.240 C 1319.400 682.481, 1328.942 674.204, 1338 665.088 C 1352.084 650.912, 1360.154 642, 1358.905 642 C 1358.502 642, 1355.260 645.487, 1351.699 649.750 M 884.583 648.449 C 876.976 661.429, 859.623 678.724, 847.979 684.930 C 844.728 686.663, 841.823 688.478, 841.523 688.962 C 841.224 689.447, 843.447 690.973, 846.463 692.354 C 850.058 694, 852.644 696.008, 853.970 698.183 C 855.082 700.007, 855.994 700.998, 855.996 700.385 C 856.004 698.031, 851.451 693.654, 846.709 691.456 L 841.759 689.163 846.130 686.960 C 859.801 680.067, 879.527 660.482, 886.629 646.750 C 888.899 642.361, 887.441 643.571, 884.583 648.449 M 889.463 692.500 C 889.463 719.450, 889.592 730.331, 889.749 716.681 C 889.907 703.030, 889.906 680.980, 889.749 667.681 C 889.592 654.381, 889.463 665.550, 889.463 692.500 M 1247.742 647.250 C 1239.416 658.715, 1236.743 662.121, 1231.998 667.313 C 1226.479 673.350, 1218.738 679.660, 1211 684.427 C 1208.525 685.952, 1207.360 686.916, 1208.412 686.569 C 1216.990 683.740, 1234.292 667.655, 1244.637 652.891 L 1250.500 644.523 1251.012 702.011 L 1251.525 759.500 1251.762 701.750 C 1251.910 665.814, 1251.641 644, 1251.051 644 C 1250.529 644, 1249.040 645.462, 1247.742 647.250 M 1915.237 648.103 C 1901.754 663.391, 1898.052 667.283, 1890.711 673.882 C 1886.195 677.942, 1875.960 685.900, 1867.966 691.566 C 1847.407 706.136, 1838.361 715.742, 1835.538 726 C 1835.160 727.375, 1836.472 725.350, 1838.454 721.500 C 1842.731 713.191, 1850.347 705.191, 1861.457 697.337 C 1885.990 679.994, 1898.005 669.464, 1913.763 651.500 L 1919.904 644.500 1919.952 692.550 C 1920 740.897, 1920.151 743.065, 1923.450 742.970 C 1924.027 742.953, 1923.713 742.481, 1922.750 741.920 C 1921.122 740.972, 1921 737.565, 1921 693.009 C 1921 661.751, 1920.648 644.901, 1919.987 644.492 C 1919.430 644.148, 1917.292 645.773, 1915.237 648.103 M 2373.461 690 C 2373.461 715.575, 2373.591 726.038, 2373.749 713.250 C 2373.907 700.463, 2373.907 679.538, 2373.749 666.750 C 2373.591 653.963, 2373.461 664.425, 2373.461 690 M 1173.623 654.531 C 1163.604 669.587, 1150.093 682.105, 1135.082 690.241 C 1132.076 691.870, 1131.633 694.019, 1134.309 693.985 C 1135.075 693.975, 1134.999 693.652, 1134.095 693.080 C 1133.043 692.414, 1133.956 691.549, 1137.726 689.639 C 1151.028 682.898, 1164.519 670.020, 1174.785 654.263 C 1177.378 650.283, 1179.833 647.020, 1180.240 647.013 C 1180.647 647.006, 1181.097 668.487, 1181.240 694.750 L 1181.500 742.500 1199.750 742.773 L 1218 743.045 1217.771 721.773 L 1217.543 700.500 1217.251 721.250 L 1216.959 742 1199.489 742 L 1182.019 742 1181.760 694.333 C 1181.579 661.258, 1181.169 646.556, 1180.418 646.306 C 1179.823 646.108, 1176.765 649.809, 1173.623 654.531 M 1430.425 657.250 C 1421.840 669.229, 1408.187 681.478, 1397.671 686.636 C 1391.745 689.542, 1390.819 690.711, 1393.750 691.584 C 1398.037 692.860, 1404.211 696.515, 1405.296 698.418 C 1405.949 699.563, 1406.750 703.875, 1407.076 708 L 1407.669 715.500 1407.831 708.500 C 1408.064 698.395, 1404.573 693.634, 1395.006 691.009 C 1392.699 690.376, 1392.993 690.071, 1398.694 687.175 C 1409.397 681.737, 1419.230 673.025, 1429.367 660 C 1434.060 653.969, 1435.361 652, 1434.653 652 C 1434.397 652, 1432.494 654.362, 1430.425 657.250 M 235.669 658.250 C 236.494 662.584, 237.376 663.364, 236.801 659.250 L 236.346 656 263.796 656 C 294.556 656, 292.461 655.286, 284.886 663.190 L 281.272 666.961 258.886 667.251 L 236.500 667.540 259.029 667.770 L 281.558 668 288 661.500 L 294.442 655 264.746 655 L 235.050 655 235.669 658.250 M 2187.810 669.750 C 2186.985 670.712, 2184.844 674.112, 2183.051 677.304 C 2172.521 696.055, 2157.663 711.298, 2136.750 724.805 C 2131.387 728.269, 2127 731.616, 2127 732.242 C 2127 732.885, 2127.546 732.712, 2128.250 731.847 C 2128.938 731.003, 2131.972 728.829, 2134.992 727.016 C 2157.174 713.706, 2169.606 700.598, 2187.884 671.250 C 2190.125 667.651, 2190.097 667.081, 2187.810 669.750 M 2190.147 675.282 C 2189.894 685.233, 2194.880 693.639, 2203.383 697.598 C 2206.197 698.908, 2209.400 699.955, 2210.500 699.923 C 2211.600 699.892, 2210.621 699.279, 2208.324 698.561 C 2197.391 695.142, 2192.040 688.372, 2190.948 676.573 L 2190.293 669.500 2190.147 675.282 M 231.594 678.002 C 229.617 680.754, 228 683.229, 228 683.502 C 228 683.776, 293.700 684, 374 684 C 454.300 684, 520 683.646, 520 683.212 C 520 682.779, 517.847 680.304, 515.216 677.712 L 510.431 673 372.809 673 L 235.188 673 231.594 678.002 M 233.698 677.250 C 232.377 679.038, 230.977 681.063, 230.589 681.750 C 230.025 682.747, 258.998 683, 374.011 683 L 518.140 683 514.320 678.533 L 510.500 674.066 373.301 674.033 L 236.102 674 233.698 677.250 M 1674.022 683.054 C 1673.987 685.506, 1679.457 693.477, 1682.815 695.868 C 1686.164 698.253, 1693.316 701.032, 1695.876 700.944 C 1696.769 700.913, 1694.764 700.020, 1691.420 698.960 C 1684.422 696.741, 1678.743 691.846, 1675.897 685.581 C 1674.878 683.336, 1674.034 682.199, 1674.022 683.054 M 215.750 694.317 C 212.588 697.191, 210 699.871, 210 700.271 C 210 700.672, 219.621 701, 231.380 701 L 252.760 701 256.880 695.543 C 259.146 692.542, 261 689.842, 261 689.543 C 261 689.244, 252.113 689.021, 241.250 689.046 L 221.500 689.092 215.750 694.317 M 216.676 694.978 L 211.500 699.957 231.666 699.978 L 251.832 700 254.748 696.250 C 256.352 694.188, 257.991 691.938, 258.391 691.250 C 258.962 690.269, 255.112 690, 240.485 690 L 221.851 690 216.676 694.978 M 1051.414 698.969 C 1048.773 701.152, 1043.436 704.558, 1039.556 706.538 C 1035.675 708.517, 1033.625 709.834, 1035 709.465 C 1038.523 708.517, 1045.598 704.415, 1051.705 699.778 C 1054.568 697.605, 1057.380 696.117, 1057.955 696.472 C 1058.530 696.827, 1059 696.641, 1059 696.059 C 1059 693.969, 1056.135 695.068, 1051.414 698.969 M 1112.359 699.056 C 1109.686 701.287, 1103.900 704.917, 1099.500 707.124 C 1095.100 709.330, 1092.625 710.822, 1094 710.438 C 1098.045 709.310, 1105.084 705.500, 1111.250 701.102 C 1114.412 698.846, 1117.338 696.888, 1117.750 696.750 C 1118.162 696.612, 1118.725 706.813, 1119 719.418 C 1119.381 736.871, 1119.804 742.397, 1120.775 742.593 C 1121.476 742.734, 1121.589 742.621, 1121.025 742.342 C 1120.372 742.018, 1120 733.913, 1120 719.998 C 1120 698.935, 1119.685 695, 1118.002 695 C 1117.571 695, 1115.031 696.825, 1112.359 699.056 M 2232.250 700.749 C 2243.113 700.910, 2260.887 700.910, 2271.750 700.749 C 2282.613 700.587, 2273.725 700.455, 2252 700.455 C 2230.275 700.455, 2221.387 700.587, 2232.250 700.749 M 1739.500 701.947 L 1780.500 702.500 1786.216 705.307 C 1793.699 708.982, 1800.293 715.176, 1803.987 722 C 1805.624 725.025, 1806.968 727.050, 1806.973 726.500 C 1806.977 725.950, 1805.661 723.198, 1804.048 720.385 C 1800.443 714.100, 1793.571 707.919, 1786.121 704.261 L 1780.500 701.500 1739.500 701.447 L 1698.500 701.393 1739.500 701.947 M 2018.817 701.749 C 2030.542 701.909, 2049.442 701.909, 2060.817 701.749 C 2072.193 701.588, 2062.600 701.457, 2039.500 701.458 C 2016.400 701.458, 2007.093 701.589, 2018.817 701.749 M 2297.605 703.046 C 2308.635 706.910, 2317.139 714.926, 2321.524 725.593 C 2322.860 728.842, 2323.963 730.784, 2323.976 729.910 C 2323.989 729.035, 2322.627 725.572, 2320.949 722.213 C 2316.006 712.322, 2304.133 702.922, 2294.676 701.414 C 2292.929 701.135, 2294.247 701.870, 2297.605 703.046 M 855.998 722.202 C 855.724 733.588, 855.847 742.556, 856.272 742.130 C 856.696 741.705, 856.920 732.389, 856.770 721.428 L 856.496 701.500 855.998 722.202 M 2093.878 707.103 C 2104.743 713.333, 2112.818 724.784, 2113.780 735.325 C 2114.265 740.635, 2115.387 743.023, 2117.372 742.970 C 2117.993 742.953, 2117.713 742.481, 2116.750 741.920 C 2115.555 741.224, 2115 739.659, 2115 736.988 C 2115 731.622, 2111.762 723.490, 2107.240 717.500 C 2103.692 712.800, 2092.209 703.989, 2089.659 704.009 C 2089.022 704.015, 2090.920 705.407, 2093.878 707.103 M 1148.411 723 C 1148.411 732.625, 1148.561 736.563, 1148.745 731.750 C 1148.928 726.938, 1148.928 719.063, 1148.745 714.250 C 1148.561 709.438, 1148.411 713.375, 1148.411 723 M 197.712 712.440 C 195.670 714.883, 194 717.133, 194 717.440 C 194 717.748, 275 718, 374 718 C 473 718, 554 717.644, 554 717.208 C 554 716.773, 552.070 714.523, 549.712 712.208 L 545.424 708 373.424 708 L 201.424 708 197.712 712.440 M 755.404 711 C 755.499 713.472, 755.612 713.503, 765.412 713.788 C 770.863 713.947, 775.680 713.722, 776.116 713.288 C 776.552 712.855, 772.237 712.641, 766.527 712.813 C 756.354 713.120, 756.137 713.079, 755.726 710.813 C 755.340 708.682, 755.315 708.697, 755.404 711 M 199.104 712.535 C 197.397 714.479, 196 716.279, 196 716.535 C 196 716.791, 276.121 717, 374.047 717 L 552.094 717 548.880 713 L 545.665 709 373.936 709 L 202.207 709 199.104 712.535 M 1024.189 711.714 C 1020.963 712.330, 1020.293 714.817, 1022.869 716.620 C 1024.841 718.002, 1025 719.002, 1025 730.050 L 1025 741.986 957.500 742.254 L 890 742.521 957.750 742.511 L 1025.500 742.500 1025.783 730.600 C 1026.047 719.503, 1025.917 718.541, 1023.862 716.354 C 1021.340 713.668, 1021.324 713.698, 1026 712.272 C 1029.514 711.200, 1028.506 710.889, 1024.189 711.714 M 1317.263 723.022 C 1311.117 726.547, 1305.791 734.504, 1306.234 739.500 L 1306.500 742.500 1316.417 742.788 C 1323.678 742.999, 1326.554 742.731, 1327.152 741.788 C 1328.099 740.296, 1328.294 723.930, 1327.393 721.582 C 1326.479 719.200, 1323.087 719.682, 1317.263 723.022 M 1319.500 722.639 C 1312.776 726.222, 1307 734.012, 1307 739.496 L 1307 742.072 1316.750 741.786 L 1326.500 741.500 1326.500 731.500 C 1326.500 722.243, 1326.351 721.483, 1324.500 721.270 C 1323.400 721.143, 1321.150 721.759, 1319.500 722.639 M 186.740 726.750 C 185.291 728.263, 183.401 731.188, 182.540 733.250 L 180.973 737 210.375 737 L 239.777 737 240.453 733.398 C 240.825 731.417, 240.929 729.596, 240.685 729.351 C 240.440 729.107, 239.941 730.503, 239.575 732.453 L 238.909 736 210.955 736 C 195.580 736, 183 735.753, 183 735.450 C 183 734.422, 186.094 728.914, 187.772 726.953 C 189.351 725.110, 190.888 725, 215.149 725 C 238.788 725, 240.890 725.141, 241.311 726.750 C 241.655 728.067, 241.797 727.943, 241.884 726.250 L 242 724 215.687 724 L 189.374 724 186.740 726.750 M 1274.064 731.190 C 1273.411 734.338, 1273.066 744.343, 1273.227 755.519 L 1273.500 774.500 1299.693 774.766 L 1325.887 775.033 1326.291 779.024 L 1326.696 783.015 1326.598 778.757 L 1326.500 774.500 1300.250 774.233 L 1274 773.967 1274.024 754.733 C 1274.038 744.155, 1274.504 733.528, 1275.059 731.118 C 1275.615 728.708, 1275.868 726.535, 1275.622 726.289 C 1275.376 726.043, 1274.675 728.248, 1274.064 731.190 M 1807.989 752.500 L 1807.500 773.500 1704.750 773.755 C 1641.317 773.912, 1602 773.651, 1602 773.072 C 1602 772.557, 1602.880 771.855, 1603.956 771.514 C 1606.185 770.806, 1611.003 765.438, 1610.993 763.673 C 1610.990 763.028, 1610.139 763.786, 1609.102 765.359 C 1608.066 766.931, 1605.931 769.061, 1604.359 770.093 C 1597.523 774.577, 1595.577 774.486, 1704 774.737 C 1760.375 774.868, 1807.072 774.611, 1807.771 774.165 C 1808.747 773.544, 1808.976 768.511, 1808.760 752.428 L 1808.478 731.500 1807.989 752.500 M 1674.054 734.435 C 1672.250 736.608, 1673.116 742.450, 1675.270 742.640 C 1676.618 742.759, 1676.664 742.682, 1675.464 742.314 C 1674.325 741.965, 1673.974 740.818, 1674.195 738.166 L 1674.500 734.500 1724.391 734.500 C 1770.819 734.500, 1774.359 734.621, 1775.386 736.250 C 1776.190 737.525, 1776.191 738.475, 1775.387 739.750 C 1774.414 741.296, 1771.851 741.562, 1753.393 742.031 L 1732.500 742.561 1753.095 742.781 C 1771.940 742.981, 1773.831 742.845, 1775.345 741.171 C 1777.496 738.794, 1777.440 736.709, 1775.171 734.655 C 1773.522 733.162, 1768.531 733, 1724.294 733 C 1682.907 733, 1675.059 733.224, 1674.054 734.435 M 1979.411 735.500 C 1979.066 736.875, 1979.066 739.125, 1979.411 740.500 C 1979.898 742.440, 1980.650 742.978, 1982.769 742.900 L 1985.500 742.801 1983 742.105 C 1980.950 741.535, 1980.500 740.788, 1980.500 737.955 L 1980.500 734.500 2030.120 734.241 C 2084.196 733.958, 2083.011 733.837, 2081.593 739.487 C 2080.962 741.998, 2080.952 742, 2067.731 742.217 L 2054.500 742.435 2067.490 742.749 C 2078.857 743.024, 2080.638 742.848, 2081.740 741.341 C 2083.443 739.012, 2083.326 736.468, 2081.429 734.571 C 2080.042 733.185, 2073.987 733, 2029.948 733 L 1980.038 733 1979.411 735.500 M 2209.891 733.991 C 2285.998 734.467, 2291.354 734.614, 2292.386 736.250 C 2293.190 737.525, 2293.191 738.475, 2292.388 739.750 C 2291.422 741.283, 2288.943 741.566, 2272.393 742.033 L 2253.500 742.567 2272.179 742.783 C 2288.023 742.967, 2291.096 742.762, 2292.429 741.429 C 2294.516 739.341, 2294.416 736.686, 2292.171 734.655 C 2290.497 733.139, 2283.524 733.020, 2209.421 733.241 L 2128.500 733.482 2209.891 733.991 M 1832.467 756 L 1832.500 774.500 1860.156 775 C 1875.366 775.275, 1887.602 775.163, 1887.347 774.750 C 1887.091 774.337, 1874.768 774, 1859.963 774 L 1833.044 774 1832.739 755.750 L 1832.434 737.500 1832.467 756 M 722.116 740.750 L 722 743 747.750 742.768 L 773.500 742.536 748.320 742.251 C 725.416 741.992, 723.099 741.809, 722.686 740.233 C 722.350 738.950, 722.202 739.084, 722.116 740.750 M 176.020 746.960 C 174.909 749.138, 174 751.388, 174 751.960 C 174 752.677, 238.534 753, 381.500 753 C 495.625 753, 589 752.680, 589 752.288 C 589 751.896, 587.106 749.646, 584.792 747.288 L 580.584 743 379.312 743 L 178.041 743 176.020 746.960 M 176.685 747.534 C 175.758 749.478, 175 751.278, 175 751.534 C 175 751.790, 268.016 752, 381.703 752 L 588.406 752 584.500 748 L 580.594 744 379.482 744 L 178.370 744 176.685 747.534 M 169.523 762.290 C 168.761 764.115, 167.994 766.933, 167.819 768.554 L 167.500 771.500 203.986 771.500 C 238.161 771.500, 240.483 771.388, 240.635 769.730 C 240.748 768.493, 240.655 768.418, 240.325 769.480 C 239.915 770.803, 235.194 771, 203.927 771 C 184.167 771, 168 770.857, 168 770.682 C 168 770.506, 168.692 768.031, 169.539 765.182 L 171.077 760 204.978 760 L 238.879 760 239.294 763.509 L 239.710 767.017 239.605 763.259 L 239.500 759.500 205.204 759.237 L 170.909 758.974 169.523 762.290 M 2373.044 760.316 C 2372.980 762.949, 2374.748 765.989, 2378.821 770.250 L 2382.406 774 2153.274 774 C 1946.306 774, 1923.991 774.152, 1922.571 775.571 C 1921.573 776.570, 1921.061 778.667, 1921.168 781.321 L 1921.336 785.500 1921.743 781.513 C 1921.966 779.320, 1922.621 776.957, 1923.197 776.263 C 1924.035 775.252, 1970.112 775, 2153.622 775 C 2303.788 775, 2383 774.659, 2383 774.013 C 2383 773.471, 2381.406 771.558, 2379.458 769.763 C 2377.510 767.969, 2375.280 764.700, 2374.502 762.500 C 2373.724 760.300, 2373.068 759.317, 2373.044 760.316 M 1252.086 762.904 C 1252.029 764.493, 1253.354 766.558, 1256 769 C 1258.200 771.031, 1260 772.987, 1260 773.346 C 1260 773.706, 1149.300 774, 1014 774 C 862.517 774, 768 773.642, 768 773.067 C 768 772.554, 768.888 771.853, 769.974 771.508 C 772.182 770.808, 776.012 765.918, 775.977 763.846 C 775.965 763.106, 775.222 763.986, 774.327 765.802 C 773.432 767.618, 771.417 769.767, 769.850 770.578 C 768.282 771.388, 767 772.715, 767 773.526 C 767 774.821, 796.957 775, 1013.441 775 C 1200.819 775, 1260.056 774.719, 1260.607 773.828 C 1261.041 773.125, 1259.852 771.413, 1257.640 769.556 C 1255.610 767.852, 1253.550 765.117, 1253.061 763.479 C 1252.260 760.794, 1252.163 760.737, 1252.086 762.904 M 1497.004 762.715 C 1496.998 764.475, 1502.784 770.797, 1505.062 771.520 C 1511.754 773.644, 1501.570 774, 1434.200 774 C 1378.911 774, 1361.111 774.289, 1360.200 775.200 C 1359.540 775.860, 1359.053 777.547, 1359.118 778.950 C 1359.228 781.317, 1359.283 781.285, 1359.878 778.500 L 1360.519 775.500 1433.926 775 C 1487.069 774.638, 1507.437 774.189, 1507.709 773.374 C 1507.915 772.754, 1506.494 771.309, 1504.551 770.163 C 1502.608 769.016, 1500.116 766.598, 1499.013 764.789 C 1497.910 762.980, 1497.006 762.047, 1497.004 762.715 M 165.459 778.067 C 165.096 778.653, 165.070 779.403, 165.400 779.733 C 165.730 780.063, 166 779.808, 166 779.167 C 166 778.281, 220.198 778, 390.833 778 L 615.665 778 618.833 781.941 C 620.575 784.109, 622 786.134, 622 786.441 C 622 786.749, 518.988 787, 393.083 787 C 210.886 787, 164.064 786.745, 163.662 785.750 C 163.361 785.003, 163.126 785.205, 163.079 786.250 C 163.004 787.912, 174.613 788, 393.500 788 C 520.275 788, 624 787.725, 624 787.389 C 624 787.053, 622.158 784.578, 619.907 781.889 L 615.814 777 390.966 777 C 232.795 777, 165.923 777.316, 165.459 778.067 M 1885.628 785.185 C 1883.107 792.283, 1873.566 801.853, 1866 804.874 C 1862.975 806.081, 1861.850 806.798, 1863.500 806.466 C 1867.858 805.590, 1874.952 801.259, 1879.141 796.918 C 1882.920 793.002, 1888.459 782.878, 1887.840 781.019 C 1887.645 780.434, 1886.649 782.309, 1885.628 785.185 M 1812.639 785.694 C 1812.288 786.046, 1812.053 787.496, 1812.118 788.917 C 1812.230 791.358, 1812.272 791.335, 1812.887 788.500 L 1813.537 785.500 1817.356 791.235 C 1821.528 797.501, 1826.848 802.203, 1832.380 804.514 C 1838.061 806.888, 1837.986 806.162, 1832.264 803.394 C 1826.300 800.508, 1821.265 795.964, 1817.602 790.161 C 1814.858 785.815, 1813.627 784.707, 1812.639 785.694 M 1252.576 786.877 C 1251.994 787.819, 1254.872 798.461, 1255.531 797.802 C 1255.749 797.585, 1255.267 795.216, 1254.462 792.538 C 1253.012 787.722, 1253.301 785.185, 1254.975 788.029 C 1258.020 793.203, 1262.263 797.674, 1267.364 801.082 C 1270.589 803.237, 1273.739 804.995, 1274.364 804.988 C 1274.989 804.981, 1273.475 803.826, 1271 802.421 C 1265.706 799.416, 1259.690 793.814, 1256.855 789.250 C 1254.816 785.967, 1253.567 785.274, 1252.576 786.877 M 1356.079 793.712 C 1355.867 796.970, 1351.456 806.523, 1348.105 810.983 C 1343.655 816.906, 1334.179 824.735, 1328.227 827.406 C 1325.891 828.455, 1324.160 829.493, 1324.380 829.713 C 1324.600 829.933, 1326.786 829.171, 1329.237 828.019 C 1335.816 824.926, 1344.953 817.176, 1349.218 811.072 C 1353.185 805.394, 1357.386 795.479, 1356.616 793.612 C 1356.308 792.864, 1356.132 792.896, 1356.079 793.712 M 163 794.750 C 163 795.163, 182.012 795.382, 205.250 795.239 L 247.500 794.977 251.745 800.489 L 255.990 806 209.550 806 L 163.110 806 162.735 801.250 L 162.360 796.500 162.180 801.750 L 162 807 209.583 807 C 235.754 807, 257.017 806.651, 256.833 806.225 C 256.650 805.799, 254.700 802.891, 252.500 799.763 L 248.500 794.076 205.750 794.038 C 182.238 794.017, 163 794.337, 163 794.750 M 846.481 799.394 C 844.821 800.117, 842.031 802.340, 840.281 804.333 C 830.622 815.333, 838.610 832.338, 853.210 831.859 L 857.500 831.718 852.500 831.071 C 846.502 830.295, 844.051 829.038, 840.648 824.993 C 835.428 818.790, 835.953 809.812, 841.882 803.882 C 848.083 797.682, 856.900 797.432, 863.771 803.262 C 867.309 806.264, 867.372 806.280, 865 803.584 C 860.387 798.340, 852.826 796.629, 846.481 799.394 M 887.970 800.250 C 882.940 802.791, 878.956 808.018, 879.090 811.898 C 879.171 814.241, 879.277 814.163, 880.153 811.120 C 880.687 809.260, 881.809 806.695, 882.645 805.419 C 884.490 802.603, 891.620 799, 895.348 799 C 902.285 799, 909.345 804.670, 910.878 811.474 C 911.726 815.237, 911.793 815.297, 911.893 812.400 C 912.045 807.990, 907.205 801.699, 902.082 799.649 C 896.541 797.432, 893.272 797.572, 887.970 800.250 M 1256.027 799.569 C 1255.972 801.750, 1263.703 813.274, 1268.371 817.971 C 1272.660 822.285, 1283.345 829.080, 1285.640 828.952 C 1286.113 828.925, 1283.814 827.518, 1280.530 825.825 C 1273.046 821.964, 1263.450 812.345, 1259.259 804.500 C 1257.496 801.200, 1256.041 798.981, 1256.027 799.569 M 1914.721 804.309 C 1908.734 815.687, 1896.694 825.215, 1882 830.203 C 1878.050 831.544, 1877.486 831.920, 1880 831.539 C 1886.874 830.497, 1899.915 823.124, 1906.383 816.623 C 1911.739 811.239, 1918.880 800.547, 1917.825 799.492 C 1917.620 799.287, 1916.223 801.454, 1914.721 804.309 M 1817 802.323 C 1817 803.853, 1824.857 814.550, 1828.653 818.187 C 1832.638 822.007, 1843.583 829.030, 1845.441 828.960 C 1846.024 828.938, 1845.150 828.210, 1843.500 827.341 C 1833.071 821.853, 1826.678 816, 1819.664 805.518 C 1818.199 803.328, 1817 801.890, 1817 802.323 M 868.267 810.707 C 870.224 818.038, 867.316 825.007, 860.589 829.109 C 858.890 830.145, 857.958 830.994, 858.518 830.996 C 861.358 831.007, 866.932 825.744, 868.540 821.535 C 870.308 816.906, 870.128 809.728, 868.196 807.796 C 867.613 807.213, 867.641 808.362, 868.267 810.707 M 162 817.531 C 162 820.237, 162.504 822.254, 163.250 822.538 C 163.938 822.799, 276.031 822.897, 412.346 822.756 L 660.192 822.500 656.011 817.750 L 651.830 813 406.915 813 L 162 813 162 817.531 M 163 818 L 163 822 410.622 822 C 644.591 822, 658.169 821.905, 656.872 820.281 C 656.118 819.336, 654.631 817.536, 653.570 816.281 L 651.639 814 407.320 814 L 163 814 163 818 M 909.524 822.925 C 907.723 828.600, 896.883 832.549, 889.843 830.095 C 887.168 829.162, 886.787 829.187, 887.823 830.223 C 890.001 832.401, 901.358 831.870, 904.615 829.438 C 907.984 826.923, 911.583 822.250, 910.774 821.441 C 910.449 821.116, 909.886 821.783, 909.524 822.925 M 223 829.984 C 280.968 830.487, 282.590 830.553, 286 832.577 C 287.925 833.719, 292.868 835.969, 296.986 837.577 L 304.471 840.500 234.986 841.010 L 165.500 841.521 237 841.698 C 318.213 841.900, 311.084 842.983, 290.616 833.554 L 280.732 829 222.116 829.234 L 163.500 829.469 223 829.984 M 455 835.500 L 448.558 842 491 842 L 533.442 842 527 835.500 L 520.558 829 491 829 L 461.442 829 455 835.500 M 456 835.500 L 450.568 841 491 841 L 531.432 841 526 835.500 L 520.568 830 491 830 L 461.432 830 456 835.500 M 168 850.032 C 168 850.600, 168.652 852.625, 169.449 854.532 L 170.898 858 433.699 857.960 L 696.500 857.921 691.653 853.460 L 686.807 849 427.403 849 C 249.753 849, 168 849.325, 168 850.032 M 169.506 851.750 C 169.903 852.712, 170.453 854.288, 170.730 855.250 C 171.208 856.911, 184.546 857, 432.783 857 L 694.333 857 690.417 853.542 L 686.500 850.083 427.643 850.042 C 181.495 850.002, 168.821 850.086, 169.506 851.750 M 1665.750 859.743 C 1669.737 859.932, 1676.263 859.932, 1680.250 859.743 C 1684.237 859.553, 1680.975 859.397, 1673 859.397 C 1665.025 859.397, 1661.763 859.553, 1665.750 859.743 M 1707.545 864.771 C 1726.781 871.296, 1739.637 883.677, 1745.012 900.855 C 1746.105 904.351, 1747 908.288, 1747 909.605 L 1747 912 1721.453 912 L 1695.907 912 1694.203 908.783 C 1692.212 905.022, 1687.291 899.988, 1685.644 900.027 C 1685.015 900.041, 1685.701 900.798, 1687.168 901.709 C 1688.636 902.619, 1690.852 905.194, 1692.094 907.432 C 1693.335 909.669, 1694.834 911.831, 1695.425 912.235 C 1696.016 912.639, 1707.877 912.976, 1721.781 912.985 C 1750.562 913.002, 1749.101 913.498, 1747.065 904.398 C 1743.955 890.502, 1733.576 876.776, 1720.761 869.609 C 1714.165 865.920, 1703.960 861.983, 1701.093 862.021 C 1700.217 862.033, 1703.120 863.271, 1707.545 864.771 M 993.654 863.750 C 993.399 864.163, 1040.411 864.383, 1098.124 864.241 L 1203.058 863.982 1203.965 866.241 C 1204.520 867.621, 1204.898 867.897, 1204.937 866.950 C 1205.100 862.951, 1206.420 863, 1098.359 863 C 1041.026 863, 993.909 863.337, 993.654 863.750 M 1257.200 864.200 C 1256.289 865.111, 1256.057 878.920, 1256.237 921.450 L 1256.475 977.500 1256.987 921 L 1257.500 864.500 1284 864.500 L 1310.500 864.500 1311.013 920.500 L 1311.525 976.500 1311.763 920.950 C 1311.943 878.809, 1311.710 865.110, 1310.800 864.200 C 1309.929 863.329, 1302.578 863, 1284 863 C 1265.422 863, 1258.071 863.329, 1257.200 864.200 M 1334.667 863.667 C 1333.741 864.592, 1333.824 1030.773, 1334.750 1031.346 C 1335.162 1031.601, 1335.382 994.045, 1335.239 947.888 L 1334.977 863.966 1360.645 864.233 L 1386.313 864.500 1411.548 904 C 1440.788 949.769, 1441.614 951, 1443.101 951 C 1443.717 951, 1443.337 950.212, 1442.255 949.250 C 1441.174 948.288, 1429.131 929.950, 1415.494 908.500 C 1401.856 887.050, 1389.619 868.038, 1388.298 866.250 L 1385.898 863 1360.616 863 C 1346.710 863, 1335.033 863.300, 1334.667 863.667 M 1444.664 863.733 C 1444.403 864.155, 1455.735 864.500, 1469.845 864.500 L 1495.500 864.500 1496.014 932.500 L 1496.528 1000.500 1496.514 932 L 1496.500 863.500 1470.819 863.233 C 1456.695 863.087, 1444.925 863.312, 1444.664 863.733 M 1525.250 863.654 C 1524.563 863.936, 1524.014 864.917, 1524.030 865.833 C 1524.058 867.337, 1524.161 867.329, 1525.080 865.750 C 1526.010 864.153, 1528.411 864, 1552.480 864 C 1578.111 864, 1578.874 864.057, 1579.314 866.015 C 1579.690 867.692, 1579.744 867.650, 1579.633 865.765 L 1579.500 863.500 1553 863.321 C 1538.425 863.222, 1525.938 863.372, 1525.250 863.654 M 1807.289 865.250 C 1806.157 866.487, 1804.958 868.625, 1804.625 870 C 1804.149 871.971, 1804.321 871.851, 1805.439 869.432 C 1806.219 867.744, 1807.489 865.839, 1808.261 865.198 C 1809.233 864.392, 1817.949 863.946, 1836.582 863.750 L 1863.500 863.466 1836.424 863.233 C 1809.482 863.001, 1809.339 863.011, 1807.289 865.250 M 1965.500 863.975 L 1991.500 864.500 1992.014 914 L 1992.528 963.500 1992.764 914.450 C 1992.942 877.366, 1992.707 865.107, 1991.800 864.200 C 1990.917 863.317, 1983.848 863.059, 1965.050 863.225 L 1939.500 863.449 1965.500 863.975 M 2019.250 863.662 C 2018.563 863.940, 2018 864.634, 2018 865.206 C 2018 865.888, 2018.460 865.863, 2019.341 865.132 C 2020.273 864.358, 2035.256 863.938, 2068.591 863.750 L 2116.500 863.480 2068.500 863.319 C 2042.100 863.230, 2019.938 863.385, 2019.250 863.662 M 68.216 869.281 C 65.347 872.186, 63 874.886, 63 875.281 C 63 875.677, 177.013 876, 316.363 876 L 569.726 876 574.363 871.043 C 576.913 868.316, 579 865.616, 579 865.043 C 579 864.322, 500.995 864, 326.216 864 L 73.432 864 68.216 869.281 M 1631.018 867.627 C 1620.916 872.681, 1611.039 882.200, 1606.516 891.240 C 1604.582 895.106, 1603.011 898.996, 1603.024 899.884 C 1603.037 900.773, 1604.086 898.976, 1605.354 895.892 C 1606.623 892.808, 1608.653 888.679, 1609.866 886.717 C 1613.698 880.516, 1623.587 872.273, 1632.289 868.026 C 1636.805 865.822, 1639.998 864.015, 1639.384 864.009 C 1638.771 864.004, 1635.006 865.632, 1631.018 867.627 M 69.195 870 L 64.889 875 316.732 875 L 568.575 875 573.500 870 L 578.425 865 325.962 865 L 73.500 865.001 69.195 870 M 1443.423 886.500 C 1443.424 898.050, 1443.570 902.638, 1443.747 896.696 C 1443.924 890.753, 1443.923 881.303, 1443.745 875.696 C 1443.567 870.088, 1443.422 874.950, 1443.423 886.500 M 2142.158 869.375 C 2154.688 874.528, 2161.574 880.260, 2166.936 890 C 2168.601 893.025, 2169.968 895.050, 2169.973 894.500 C 2169.991 892.350, 2164.002 883.282, 2159.862 879.191 C 2155.570 874.951, 2141.331 866.977, 2138.134 867.024 C 2137.235 867.037, 2139.046 868.095, 2142.158 869.375 M 993.405 884.500 C 993.406 893.300, 993.559 896.766, 993.745 892.203 C 993.930 887.639, 993.929 880.439, 993.742 876.203 C 993.555 871.966, 993.404 875.700, 993.405 884.500 M 1580 954.465 C 1580 1028.051, 1579.952 1029.955, 1578.066 1030.965 C 1575.849 1032.151, 1528.145 1032.400, 1526.400 1031.235 C 1525.795 1030.831, 1525.043 1029.825, 1524.729 1029 C 1524.267 1027.788, 1524.143 1027.829, 1524.079 1029.215 C 1523.919 1032.691, 1527.319 1033.104, 1553.562 1032.798 C 1574.927 1032.548, 1579.229 1032.256, 1580.022 1031 C 1580.989 1029.469, 1581.462 879, 1580.500 879 C 1580.225 879, 1580 912.959, 1580 954.465 M 62 883.792 C 62 884.227, 63.930 886.477, 66.288 888.792 L 70.576 893 400.288 893 C 587.349 893, 730 892.622, 730 892.127 C 730 891.647, 727.985 889.397, 725.522 887.127 L 721.045 883 391.522 883 C 210.285 883, 62 883.356, 62 883.792 M 67.500 888 L 71.406 892 399.906 892 L 728.406 892 724.500 888 L 720.594 884 392.094 884 L 63.594 884 67.500 888 M 194.880 900.776 C 195.403 901.753, 197.556 904.467, 199.665 906.807 L 203.500 911.063 403 910.781 L 602.500 910.500 596.500 904.772 L 590.500 899.044 392.215 899.022 C 202.577 899.001, 193.971 899.077, 194.880 900.776 M 78 900.922 C 78 901.429, 80.138 903.676, 82.750 905.916 L 87.500 909.987 106 909.972 L 124.500 909.957 119.324 904.978 L 114.149 900 96.074 900 C 85.708 900, 78 900.393, 78 900.922 M 197.193 901.834 C 197.912 902.842, 199.708 905.092, 201.185 906.834 L 203.871 910 402.148 910 L 600.425 910 595.500 905 L 590.575 900 393.231 900 C 202.041 900, 195.927 900.057, 197.193 901.834 M 83.500 905 L 87.406 909 104.406 909 L 121.406 909 117.500 905 L 113.594 901 96.594 901 L 79.594 901 83.500 905 M 993.100 904.550 C 992.895 908.770, 994.245 909, 1019.189 909 L 1042.978 909 1043.256 950 L 1043.534 991 1043.517 949.750 L 1043.500 908.500 1019.044 908 L 994.588 907.500 993.894 905 C 993.312 902.906, 993.183 902.833, 993.100 904.550 M 2072.459 906.067 C 2072.096 906.653, 2072.070 907.403, 2072.400 907.733 C 2072.730 908.063, 2073 907.808, 2073 907.167 C 2073 906.319, 2078.129 906.001, 2091.750 906.004 C 2112.692 906.008, 2114.963 906.611, 2119.005 913.241 C 2120.098 915.033, 2120.994 915.972, 2120.996 915.327 C 2121.002 913.504, 2116.075 908.090, 2112.931 906.464 C 2109.426 904.652, 2073.551 904.299, 2072.459 906.067 M 1100.200 909.200 C 1099.540 909.860, 1099.029 911.097, 1099.063 911.950 C 1099.102 912.893, 1099.484 912.611, 1100.038 911.232 L 1100.949 908.964 1124.724 909.232 L 1148.500 909.500 1149.020 943.500 L 1149.540 977.500 1149.770 943.950 C 1149.942 918.926, 1149.695 910.095, 1148.800 909.200 C 1147.936 908.336, 1141.133 908, 1124.500 908 C 1107.867 908, 1101.064 908.336, 1100.200 909.200 M 101.446 923.500 L 106.143 928 123.571 928 C 133.157 928, 140.988 927.663, 140.973 927.250 C 140.940 926.326, 134.200 919, 133.383 919 C 133.058 919, 134.275 920.688, 136.087 922.750 L 139.381 926.500 123.005 926.776 L 106.628 927.051 102.526 923.026 C 100.270 920.812, 98.047 919, 97.587 919 C 97.126 919, 98.863 921.025, 101.446 923.500 M 213 919.468 C 213 919.725, 215.404 921.751, 218.343 923.969 L 223.687 928.004 494.808 927.752 L 765.929 927.500 762.005 923.250 L 758.080 919 485.540 919 C 335.643 919, 213 919.210, 213 919.468 M 219.296 923.500 L 223.880 927 494.136 927 L 764.392 927 761 923.500 L 757.608 920 486.160 920 L 214.712 920 219.296 923.500 M 1936.237 975.128 C 1936.040 1021.271, 1936.234 1030.949, 1937.372 1031.894 C 1938.342 1032.699, 1946.609 1032.955, 1965.540 1032.767 C 1988.309 1032.540, 1992.409 1032.275, 1992.830 1031 C 1993.239 1029.760, 1993.059 1029.719, 1991.790 1030.767 C 1990.618 1031.734, 1984.016 1031.971, 1963.877 1031.767 L 1937.500 1031.500 1936.987 975.500 L 1936.475 919.500 1936.237 975.128 M 2018.465 972 C 2018.465 1000.875, 2018.593 1012.688, 2018.749 998.250 C 2018.905 983.812, 2018.905 960.187, 2018.749 945.750 C 2018.593 931.313, 2018.465 943.125, 2018.465 972 M 2170.252 927.050 C 2167.815 937.490, 2158.715 948.499, 2149.690 951.929 C 2146.088 953.297, 2146.838 954.383, 2153.823 957.918 C 2160.416 961.254, 2166.181 966.542, 2168.957 971.800 C 2170.032 973.835, 2170.931 975.026, 2170.956 974.446 C 2171.041 972.419, 2165.182 964.241, 2161.855 961.743 C 2160.010 960.357, 2156.029 957.986, 2153.009 956.473 C 2147.960 953.944, 2147.703 953.654, 2149.809 952.875 C 2154.170 951.262, 2160.977 945.910, 2164.445 941.368 C 2168.289 936.333, 2172.262 926.779, 2171.798 923.687 C 2171.634 922.596, 2170.938 924.110, 2170.252 927.050 M 1603.464 926.976 C 1605.047 936.521, 1613.405 946.587, 1625.910 954.009 C 1630.535 956.754, 1634.810 958.995, 1635.410 958.989 C 1636.009 958.982, 1633.575 957.361, 1630 955.386 C 1615.797 947.538, 1608.972 940.450, 1605.021 929.445 C 1603.611 925.517, 1603.083 924.679, 1603.464 926.976 M 1717 934.162 C 1718.375 934.807, 1722.311 936.632, 1725.746 938.217 C 1733.665 941.870, 1742.912 950.390, 1746.598 957.429 C 1748.167 960.428, 1749.607 962.727, 1749.796 962.538 C 1750.780 961.554, 1744.992 952.777, 1739.779 947.348 C 1734.082 941.415, 1723.849 935.235, 1717 933.590 L 1714.500 932.989 1717 934.162 M 118.297 940.536 L 124.093 946 142.262 946 L 160.432 946 155 940.500 L 149.568 935 131.034 935.036 L 112.500 935.073 118.297 940.536 M 236.814 936.582 C 238.056 937.452, 243.405 939.927, 248.701 942.082 L 258.331 946 309.088 946 L 359.846 946 370.423 941.036 C 376.240 938.306, 381 935.831, 381 935.536 C 381 935.241, 348.050 935, 307.777 935 C 240.720 935, 234.745 935.133, 236.814 936.582 M 526 935.859 C 526 936.332, 527.838 938.807, 530.085 941.359 L 534.170 946 586.301 946 L 638.432 946 633 940.500 L 627.568 935 576.784 935 C 548.853 935, 526 935.387, 526 935.859 M 119.527 940.455 L 124.500 944.910 141.458 944.955 L 158.416 945 154 940.500 L 149.584 936 132.069 936 L 114.555 936 119.527 940.455 M 240.527 937.328 C 241.612 938.059, 246.100 940.086, 250.500 941.834 L 258.500 945.011 309.161 945.005 L 359.821 945 369.161 940.513 L 378.500 936.026 308.527 936.013 C 250.028 936.002, 238.878 936.218, 240.527 937.328 M 528 936.606 C 528 936.939, 529.388 938.964, 531.084 941.106 L 534.168 945 585.307 945 L 636.445 945 631.473 940.545 L 626.500 936.090 577.250 936.045 C 550.163 936.020, 528 936.273, 528 936.606 M 1385.194 955.250 L 1385.387 965.500 1385.944 955.500 L 1386.500 945.500 1396.413 960.500 C 1401.865 968.750, 1413.960 987.200, 1423.290 1001.500 C 1441.400 1029.256, 1443.467 1032.035, 1445.924 1031.937 C 1446.989 1031.894, 1446.812 1031.595, 1445.380 1031.017 C 1444.214 1030.546, 1441.235 1027.087, 1438.758 1023.330 C 1428.723 1008.105, 1399.098 962.905, 1393.492 954.266 C 1390.196 949.187, 1386.938 945.024, 1386.250 945.016 C 1385.318 945.004, 1385.049 947.606, 1385.194 955.250 M 136.050 958.524 L 140.574 963.048 158.510 962.774 L 176.446 962.500 172.022 958.250 L 167.597 954 149.562 954 L 131.526 954 136.050 958.524 M 542 954.383 C 542 954.593, 544.844 956.618, 548.320 958.883 L 554.639 963 677.320 963 C 755.491 963, 800 962.650, 800 962.035 C 800 961.504, 798.603 959.479, 796.896 957.535 L 793.793 954 667.896 954 C 598.653 954, 542 954.172, 542 954.383 M 137.500 958.477 L 141.500 961.925 157.946 961.962 L 174.392 962 171 958.500 L 167.608 955 150.554 955.015 L 133.500 955.030 137.500 958.477 M 545 955.332 C 545 955.514, 547.203 957.091, 549.896 958.836 L 554.792 962.008 676.883 961.754 L 798.973 961.500 795.936 958.250 L 792.899 955 668.949 955 C 600.777 955, 545 955.149, 545 955.332 M 1386.409 985.500 C 1386.408 994.850, 1386.558 998.810, 1386.743 994.299 C 1386.928 989.789, 1386.929 982.139, 1386.745 977.299 C 1386.562 972.460, 1386.410 976.150, 1386.409 985.500 M 149 970.784 C 149 971.215, 151.377 973.915, 154.281 976.784 L 159.563 982 177.281 982 C 187.027 982, 195 981.647, 195 981.216 C 195 980.785, 192.623 978.085, 189.719 975.216 L 184.437 970 166.719 970 C 156.973 970, 149 970.353, 149 970.784 M 565 970.405 C 565 971.178, 574.160 976.174, 574.660 975.674 C 574.936 975.397, 573.551 974.406, 571.581 973.472 C 569.612 972.537, 568 971.598, 568 971.386 C 568 971.174, 618.296 971, 679.770 971 L 791.539 971 796.270 975.111 C 798.871 977.372, 801 979.622, 801 980.111 C 801 980.624, 756.416 981, 695.626 981 C 604.185 981, 589.685 980.800, 585.970 979.489 C 583.615 978.658, 581.509 978.158, 581.290 978.377 C 581.071 978.596, 583.021 979.501, 585.624 980.388 C 589.860 981.831, 601.497 982, 696.678 982 C 755.155 982, 803 981.647, 803 981.216 C 803 980.785, 800.623 978.085, 797.719 975.216 L 792.437 970 678.719 970 C 616.173 970, 565 970.182, 565 970.405 M 155.500 976 L 160.425 981 177.462 980.989 L 194.500 980.978 189 976.032 L 183.500 971.087 167.038 971.043 L 150.575 971 155.500 976 M 2073.309 975.250 C 2072.281 976.838, 2071.240 1031.973, 2072.250 1031.347 C 2072.662 1031.091, 2073.007 1018.871, 2073.015 1004.191 C 2073.024 989.511, 2073.380 976.950, 2073.807 976.278 C 2074.347 975.428, 2079.139 974.962, 2089.542 974.749 L 2104.500 974.442 2089.309 974.221 C 2078.052 974.057, 2073.909 974.324, 2073.309 975.250 M 1599.067 988.528 C 1598.955 991.907, 1605.371 1004.098, 1610.891 1011 C 1615.695 1017.005, 1628.445 1027, 1631.302 1027 C 1631.936 1027, 1629.593 1025.313, 1626.096 1023.250 C 1615.218 1016.835, 1604.272 1002.904, 1600.403 990.553 C 1599.705 988.324, 1599.104 987.413, 1599.067 988.528 M 167.027 988.750 C 167.065 989.803, 174.085 997.248, 174.576 996.757 C 174.798 996.535, 173.634 995.065, 171.990 993.490 C 170.345 991.915, 169 990.260, 169 989.813 C 169 989.366, 176.537 989.010, 185.750 989.023 L 202.500 989.045 205.940 993.023 C 207.833 995.210, 209.839 997, 210.399 997 C 210.958 997, 209.429 994.975, 207 992.500 L 202.584 988 184.792 988 C 175.006 988, 167.012 988.337, 167.027 988.750 M 710.229 989.562 C 710.538 989.871, 737.058 990.083, 769.163 990.032 L 827.537 989.941 831.461 993.960 L 835.385 997.978 792.442 998.250 L 749.500 998.522 792.833 998.761 C 817.444 998.897, 836.023 998.620, 835.833 998.121 C 835.650 997.638, 833.814 995.388, 831.753 993.121 L 828.005 989 768.836 989 C 736.293 989, 709.919 989.253, 710.229 989.562 M 1750.574 992.457 C 1748.311 1004.518, 1736.991 1018.979, 1723.999 1026.405 C 1721.524 1027.819, 1719.974 1028.981, 1720.554 1028.988 C 1722.394 1029.009, 1731.338 1022.965, 1735.845 1018.655 C 1740.528 1014.177, 1746.535 1005.725, 1749.210 999.851 C 1750.953 996.023, 1752.579 989, 1751.723 989 C 1751.448 989, 1750.931 990.556, 1750.574 992.457 M 1307.105 994.105 C 1303.161 1007.459, 1292.707 1019.866, 1279.804 1026.508 C 1275.581 1028.682, 1272.277 1030.611, 1272.461 1030.794 C 1272.645 1030.978, 1275.895 1029.567, 1279.683 1027.659 C 1288.236 1023.352, 1296.194 1016.303, 1301.147 1008.646 C 1305.049 1002.615, 1309.333 992.498, 1308.739 990.717 C 1308.554 990.163, 1307.819 991.688, 1307.105 994.105 M 1154.016 996.279 C 1154.007 996.707, 1155.410 999.857, 1157.133 1003.279 C 1160.772 1010.503, 1171.139 1021.230, 1178.409 1025.293 C 1185.883 1029.471, 1185.190 1028.514, 1176.708 1022.945 C 1167.914 1017.172, 1163.097 1011.912, 1157.766 1002.261 C 1155.712 998.542, 1154.024 995.850, 1154.016 996.279 M 2120.392 1009 C 2120.392 1016.425, 2120.549 1019.462, 2120.742 1015.750 C 2120.934 1012.038, 2120.934 1005.962, 2120.742 1002.250 C 2120.549 998.538, 2120.392 1001.575, 2120.392 1009 M 2174.209 1013.757 C 2174.009 1023.575, 2174.107 1024.106, 2176.500 1026.187 C 2177.875 1027.382, 2179 1029.180, 2179 1030.180 C 2179 1031.895, 2177.455 1031.999, 2152.250 1031.985 C 2137.537 1031.976, 2124.893 1031.584, 2124.150 1031.114 C 2123.408 1030.643, 2122.441 1028.738, 2122.002 1026.879 C 2121.295 1023.881, 2121.193 1023.797, 2121.102 1026.139 C 2121.046 1027.591, 2121.787 1029.740, 2122.750 1030.915 C 2124.471 1033.016, 2124.960 1033.048, 2151.987 1032.776 C 2177.809 1032.517, 2179.495 1032.388, 2179.829 1030.651 C 2180.025 1029.634, 2179.036 1027.603, 2177.631 1026.137 C 2175.301 1023.705, 2175.049 1022.600, 2174.748 1013.486 L 2174.419 1003.500 2174.209 1013.757 M 188.500 1011 L 194.437 1017 202.719 1017 L 211 1017 211 1011 L 211 1005 196.781 1005 L 182.563 1005 188.500 1011 M 190.060 1010.955 L 195.500 1015.909 202.750 1015.955 L 210 1016 210 1011 L 210 1006 197.310 1006 L 184.619 1006 190.060 1010.955 M 778 1006.296 C 778 1006.576, 782.237 1009.333, 787.415 1012.423 L 796.829 1018.041 817.665 1017.771 L 838.500 1017.500 832.583 1011.500 C 826.841 1005.678, 827.397 1007.180, 833.415 1013.750 L 836.392 1017 816.685 1017 L 796.978 1017 788.888 1011.930 C 780.624 1006.751, 778 1005.393, 778 1006.296 M 1097.982 1019.500 L 1097.500 1031.500 1071.724 1031.767 L 1045.948 1032.034 1045.037 1029.767 C 1044.141 1027.536, 1044.126 1027.534, 1044.063 1029.643 C 1044.029 1030.822, 1044.712 1032.059, 1045.582 1032.393 C 1047.973 1033.311, 1096.309 1033.090, 1097.783 1032.155 C 1098.739 1031.549, 1098.990 1028.301, 1098.765 1019.420 L 1098.464 1007.500 1097.982 1019.500 M 1808.571 1011.571 C 1807.707 1012.436, 1807 1013.611, 1807 1014.182 C 1807 1014.754, 1807.787 1014.260, 1808.750 1013.084 C 1810.468 1010.986, 1810.980 1010.952, 1836.971 1011.223 L 1863.442 1011.500 1864.706 1014 C 1865.495 1015.561, 1865.976 1015.901, 1865.985 1014.905 C 1865.993 1014.028, 1865.177 1012.565, 1864.171 1011.655 C 1862.568 1010.204, 1859.126 1010, 1836.243 1010 C 1813.849 1010, 1809.920 1010.223, 1808.571 1011.571 M 202 1024.726 C 202 1025.635, 210.231 1032.997, 211.250 1032.999 C 211.662 1032.999, 212 1030.975, 212 1028.500 L 212 1024 207 1024 C 204.250 1024, 202 1024.327, 202 1024.726 M 1803.528 1026.744 C 1802.190 1032.076, 1802.603 1032, 1774.947 1032 C 1751.194 1032, 1749.106 1031.861, 1748.721 1030.250 C 1748.403 1028.918, 1748.327 1028.978, 1748.402 1030.500 C 1748.497 1032.439, 1749.293 1032.508, 1774.580 1032.766 C 1798.444 1033.010, 1800.796 1032.882, 1802.252 1031.266 C 1803.819 1029.528, 1805.694 1024, 1804.717 1024 C 1804.442 1024, 1803.907 1025.235, 1803.528 1026.744 M 207 1028.500 C 208.866 1030.425, 210.529 1032, 210.696 1032 C 210.863 1032, 211 1030.425, 211 1028.500 C 211 1025.131, 210.861 1025, 207.304 1025 L 203.608 1025 207 1028.500 M 817.861 1027.033 C 819.159 1028.115, 820.622 1029, 821.111 1029 C 822.751 1029, 822.021 1027.944, 819.750 1027.031 C 818.305 1026.450, 825.652 1026.104, 840.298 1026.063 L 863.096 1026 865.516 1028.750 C 866.848 1030.263, 867.951 1031.827, 867.968 1032.226 C 867.986 1032.626, 860.237 1033.087, 850.750 1033.252 L 833.500 1033.550 851.809 1033.775 C 866.231 1033.952, 869.961 1033.735, 869.380 1032.750 C 868.974 1032.063, 867.544 1030.037, 866.202 1028.250 L 863.763 1025 839.631 1025.033 C 815.500 1025.067, 815.500 1025.067, 817.861 1027.033 M 2018.136 1028.715 C 2018.058 1029.983, 2018.826 1031.372, 2019.934 1031.965 C 2021.149 1032.615, 2030.911 1032.920, 2046.184 1032.784 L 2070.500 1032.568 2045 1031.991 C 2030.975 1031.673, 2019.419 1031.320, 2019.320 1031.207 C 2019.220 1031.093, 2018.944 1029.987, 2018.706 1028.750 L 2018.272 1026.500 2018.136 1028.715 M 1869 1028.623 C 1869 1029.210, 1869.823 1030.435, 1870.829 1031.345 C 1872.428 1032.792, 1875.804 1033, 1897.747 1033 C 1911.546 1033, 1923.548 1032.727, 1924.418 1032.393 C 1925.288 1032.059, 1925.971 1030.822, 1925.937 1029.643 C 1925.874 1027.524, 1925.863 1027.525, 1924.969 1029.750 L 1924.064 1032 1898.089 1032 C 1872.380 1032, 1872.097 1031.977, 1870.557 1029.777 C 1869.701 1028.555, 1869 1028.035, 1869 1028.623 M 1361 1032 L 1336.500 1032.554 1360.500 1032.762 C 1374.678 1032.884, 1385.114 1032.573, 1386 1032 C 1386.825 1031.467, 1387.050 1031.124, 1386.500 1031.238 C 1385.950 1031.353, 1374.475 1031.695, 1361 1032 M 1459.250 1032.747 C 1465.713 1032.921, 1476.287 1032.921, 1482.750 1032.747 C 1489.213 1032.573, 1483.925 1032.430, 1471 1032.430 C 1458.075 1032.430, 1452.787 1032.573, 1459.250 1032.747" stroke="none" fill="#d40404" fill-rule="evenodd"/><path d="M 1491.959 569.131 C 1488.180 576.626, 1481.522 585.202, 1473.357 593.093 C 1466.379 599.836, 1462.205 602.977, 1451.537 609.510 L 1448.575 611.325 1452.493 612.681 C 1454.648 613.427, 1457.502 615.042, 1458.834 616.269 C 1464.040 621.062, 1464 620.533, 1464 684.001 L 1464 743.066 1452.750 742.783 L 1441.500 742.500 1441.240 694.540 C 1441.097 668.162, 1440.595 646.195, 1440.124 645.724 C 1439.649 645.249, 1438.022 647.012, 1436.470 649.684 C 1427.598 664.958, 1412.008 680.434, 1398.750 687.126 L 1392.612 690.225 1396.297 691.491 C 1401.557 693.299, 1404.749 695.607, 1406.351 698.759 C 1408.186 702.369, 1409.269 739.250, 1407.607 741.522 C 1406.662 742.816, 1403.113 742.999, 1383.499 742.769 L 1360.500 742.500 1360.241 692.750 C 1360.090 663.940, 1359.601 643, 1359.077 643 C 1358.579 643, 1355.929 645.813, 1353.188 649.250 C 1344.399 660.269, 1324.945 678.290, 1309 690.183 C 1291.281 703.398, 1283.496 711.083, 1279.235 719.560 C 1274.847 728.292, 1274 734.033, 1274 755.033 L 1274 773.967 1300.250 774.233 L 1326.500 774.500 1326.817 778.354 C 1327.522 786.939, 1318.643 798.580, 1307.022 804.307 C 1301.111 807.220, 1299.710 807.500, 1291.022 807.500 C 1279.995 807.500, 1273.790 805.733, 1266.425 800.497 C 1261.974 797.332, 1255.700 790.479, 1254.700 787.689 C 1254.466 787.035, 1253.981 786.769, 1253.622 787.098 C 1252.469 788.156, 1256.832 800.306, 1260.724 806.873 C 1272.010 825.919, 1295.447 835.706, 1318.201 830.875 C 1333.224 827.685, 1348.663 814.482, 1354.024 800.240 C 1356.397 793.938, 1358.955 782.951, 1358.983 778.950 C 1358.992 777.547, 1359.540 775.860, 1360.200 775.200 C 1361.111 774.289, 1378.911 774, 1434.200 774 C 1474.240 774, 1506.983 773.663, 1506.961 773.250 C 1506.940 772.837, 1505.515 771.600, 1503.795 770.500 C 1502.075 769.400, 1499.730 767.230, 1498.584 765.677 C 1496.510 762.867, 1496.499 762.390, 1496.235 664.712 C 1496.082 607.929, 1495.590 566.190, 1495.066 565.666 C 1494.527 565.127, 1493.273 566.526, 1491.959 569.131 M 1945.667 565.667 C 1945.300 566.033, 1945 605.372, 1945 653.085 C 1945 700.798, 1944.727 740.548, 1944.393 741.418 C 1943.892 742.724, 1941.921 743, 1933.093 743 C 1926.110 743, 1921.984 742.584, 1921.200 741.800 C 1920.301 740.901, 1919.988 728.534, 1919.952 692.550 L 1919.904 644.500 1913.763 651.500 C 1898.169 669.277, 1884.696 681.111, 1862.500 696.525 C 1851.777 703.972, 1842.717 713.177, 1839.104 720.296 C 1833.871 730.605, 1833.025 735.528, 1833.012 755.750 L 1833 774 1859.965 774 C 1885.437 774, 1886.986 774.105, 1887.947 775.901 C 1890.619 780.893, 1882.295 795.792, 1873.614 801.555 C 1866.549 806.247, 1860.382 808, 1850.946 808 C 1835.921 808, 1824.879 802.508, 1817.386 791.308 C 1813.784 785.925, 1813.478 785.693, 1813.194 788.146 C 1812.860 791.031, 1816.995 801.712, 1820.299 806.500 C 1832.443 824.093, 1846.989 832, 1867.213 832 C 1883.077 832, 1896.445 825.905, 1908.487 813.182 C 1915.479 805.795, 1920.931 791.675, 1920.983 780.821 C 1921.018 773.335, 1898.357 774, 2153.274 774 L 2382.406 774 2378.821 770.250 C 2376.850 768.188, 2374.733 765.517, 2374.118 764.316 C 2373.316 762.749, 2373 734.386, 2373 664.066 C 2373 604.794, 2372.635 566, 2372.077 566 C 2371.569 566, 2368.992 569.262, 2366.349 573.250 C 2357.234 587.004, 2341.595 601.602, 2329.250 607.880 C 2324.151 610.472, 2323.910 611.573, 2328.261 612.389 C 2330.054 612.726, 2332.804 614.190, 2334.372 615.644 C 2340.095 620.951, 2340 619.799, 2340 683.968 L 2340 743 2333.019 743 C 2326.217 743, 2326.022 742.929, 2325.430 740.250 C 2321.315 721.633, 2317.549 714.846, 2307.595 708.113 C 2297.748 701.452, 2298.653 701.568, 2252 701.009 C 2210.367 700.510, 2209.399 700.453, 2204.537 698.212 C 2195.004 693.817, 2190.871 687.516, 2190.001 676.048 L 2189.428 668.500 2187.464 671.859 C 2172.296 697.803, 2155.261 715.419, 2132.750 728.442 C 2130.137 729.953, 2128 731.597, 2128 732.095 C 2128 732.628, 2161.476 733, 2209.345 733 C 2286.881 733, 2290.768 733.086, 2292.345 734.829 C 2294.423 737.125, 2294.452 739.405, 2292.429 741.429 C 2291.024 742.833, 2281.587 743, 2203.551 743 C 2134.904 743, 2116.032 742.733, 2115.249 741.750 C 2114.701 741.063, 2114.040 738.171, 2113.780 735.325 C 2112.736 723.889, 2103.581 711.874, 2091.304 705.827 L 2084.549 702.500 2040.524 702 C 2000.107 701.541, 1996.191 701.347, 1992.733 699.628 C 1987.684 697.119, 1980.656 689.132, 1979.189 684.236 C 1977.759 679.463, 1977.569 629.565, 1978.957 623.577 C 1980.212 618.170, 1982.836 614.899, 1988.059 612.233 C 1990.501 610.987, 1992.608 609.637, 1992.741 609.233 C 1992.873 608.830, 1989.816 606.547, 1985.948 604.160 C 1970.928 594.893, 1958.414 582.842, 1949.697 569.250 C 1946.796 564.726, 1946.696 564.637, 1945.667 565.667 M 2393.667 565.667 C 2393.300 566.033, 2393 613.058, 2393 670.167 L 2393 774 2413.627 774 L 2434.255 774 2430.190 769.590 C 2427.864 767.066, 2425.863 763.751, 2425.514 761.840 C 2425.178 760.003, 2425.037 727.675, 2425.201 690 C 2425.486 624.636, 2425.587 621.356, 2427.410 618.344 C 2429.369 615.108, 2435.508 611, 2438.386 611 C 2441.447 611, 2439.909 609.480, 2430.796 603.500 C 2419.025 595.775, 2405.750 582.693, 2399.592 572.750 C 2394.431 564.415, 2394.653 564.681, 2393.667 565.667 M 1521.639 566.694 C 1520.742 567.591, 1520.866 771.253, 1521.765 772.606 C 1522.655 773.946, 1554.640 775.277, 1560.411 774.215 L 1564.322 773.495 1560.305 770.711 C 1558.096 769.180, 1555.773 766.798, 1555.144 765.417 C 1553.588 762.002, 1553.515 625.411, 1555.067 621.315 C 1556.731 616.923, 1560.036 614.020, 1564.711 612.843 C 1567.070 612.249, 1569 611.424, 1569 611.011 C 1569 610.598, 1564.954 607.695, 1560.008 604.560 C 1548.145 597.039, 1536.278 585.730, 1529.395 575.385 C 1523.565 566.623, 1522.690 565.643, 1521.639 566.694 M 1670.449 568.765 C 1669.871 569.169, 1666.763 573.029, 1663.541 577.342 C 1652.110 592.648, 1643.353 600.607, 1629.777 608.031 C 1624.483 610.926, 1624.517 611.175, 1630.378 612.468 C 1634.378 613.350, 1638.633 617.922, 1639.927 622.729 C 1640.668 625.482, 1640.934 645.259, 1640.758 684.637 L 1640.500 742.500 1626.500 743 L 1612.500 743.500 1612 753.546 C 1611.450 764.592, 1610.096 767.902, 1604.921 770.846 C 1603.321 771.756, 1602.010 772.840, 1602.006 773.255 C 1602.003 773.670, 1648.237 773.895, 1704.750 773.755 L 1807.500 773.500 1807.500 751 L 1807.500 728.500 1804.073 722.179 C 1800.096 714.845, 1794.067 709.163, 1786.121 705.261 L 1780.500 702.500 1737.500 701.951 C 1700.082 701.473, 1693.925 701.178, 1690.069 699.681 C 1683.780 697.240, 1679.472 693.660, 1676.272 688.216 L 1673.500 683.500 1673.219 625.750 C 1673.064 593.987, 1672.614 568.007, 1672.219 568.015 C 1671.824 568.024, 1671.027 568.361, 1670.449 568.765 M 732.500 582.995 C 721.777 588.339, 720.534 603.252, 730.235 610.171 C 734.716 613.367, 744.530 613.486, 748.677 610.395 C 758.226 603.278, 757.430 588.982, 747.163 583.212 C 742.286 580.471, 737.701 580.403, 732.500 582.995 M 776.481 582.339 C 772.254 584.257, 767.220 590.312, 766.453 594.400 C 765.170 601.239, 768.688 608.236, 775.069 611.536 C 779.162 613.652, 786.844 613.392, 790.759 611.005 C 797.418 606.946, 800.131 597.021, 796.501 590.002 C 792.970 583.175, 783.029 579.369, 776.481 582.339 M 1232.001 582.123 C 1222.831 585.780, 1219.307 596.729, 1224.466 605.532 C 1232.144 618.633, 1252.405 613.635, 1253.681 598.324 C 1254.631 586.940, 1242.554 577.915, 1232.001 582.123 M 1375.966 583.250 C 1369.903 586.310, 1366.772 591.769, 1367.319 598.324 C 1368.624 613.989, 1389.298 618.490, 1397 604.786 C 1399.700 599.982, 1399.394 592.382, 1396.331 588.176 C 1394.007 584.983, 1386.606 581, 1383 581 C 1381.583 581, 1378.418 582.013, 1375.966 583.250 M 1417.575 583.208 C 1413.283 585.715, 1409 592.575, 1409 596.945 C 1409 600.599, 1412.963 607.992, 1416.176 610.331 C 1422.502 614.938, 1433.659 613.096, 1438.219 606.692 C 1441.553 602.010, 1441.853 593.485, 1438.839 589.092 C 1433.494 581.303, 1424.907 578.927, 1417.575 583.208 M 2167.708 583.090 C 2160.614 586.834, 2157.580 594.994, 2160.470 602.560 C 2166.781 619.085, 2191 614.674, 2191 597 C 2191 590.981, 2188.440 586.342, 2183.532 583.466 C 2178.403 580.460, 2172.936 580.330, 2167.708 583.090 M 252.168 592.045 L 247.836 597 340.130 597 L 432.425 597 427.500 592 L 422.575 587 339.538 587.045 L 256.500 587.090 252.168 592.045 M 177.194 609.018 L 173.887 613 311.146 613 L 448.406 613 444.500 609 L 440.594 605 310.547 605.018 L 180.500 605.036 177.194 609.018 M 804.546 619.592 C 792.296 634.798, 775.803 649.646, 753.838 665.242 C 734.214 679.175, 728.722 685.872, 725.062 700.331 C 723.105 708.062, 721.382 733.912, 722.489 738.950 L 723.159 742 747.514 742 C 761.620 742, 772.997 742.428, 774.548 743.018 L 777.225 744.036 776.846 754.286 C 776.525 762.953, 776.118 765.026, 774.207 767.709 C 772.965 769.454, 771.060 771.164, 769.974 771.508 C 768.888 771.853, 768 772.554, 768 773.067 C 768 773.642, 862.517 774, 1014 774 C 1165.350 774, 1260 773.641, 1260 773.068 C 1260 772.556, 1258.649 771.174, 1256.998 769.999 C 1255.347 768.823, 1253.434 766.880, 1252.748 765.680 C 1251.805 764.033, 1251.378 748.947, 1251 704.010 L 1250.500 644.521 1244.637 652.890 C 1233.631 668.600, 1219.337 681.624, 1206.591 687.559 C 1202.775 689.336, 1202.739 689.400, 1205.091 690.267 C 1217.596 694.874, 1217.996 695.866, 1217.998 722.273 L 1218 743.045 1199.750 742.773 L 1181.500 742.500 1181.240 694.750 C 1181.097 668.487, 1180.647 647.006, 1180.240 647.013 C 1179.833 647.020, 1177.378 650.283, 1174.785 654.263 C 1164.493 670.060, 1151.039 682.888, 1137.630 689.690 C 1132.657 692.213, 1132.576 692.321, 1135 693.227 C 1141.566 695.681, 1145.863 698.380, 1147.090 700.821 C 1148.885 704.390, 1149.669 737.882, 1148.030 740.945 C 1146.952 742.957, 1146.261 743.043, 1133.200 742.778 L 1119.500 742.500 1119 719.500 C 1118.725 706.850, 1118.212 696.500, 1117.861 696.500 C 1117.509 696.500, 1114.584 698.458, 1111.361 700.852 C 1103.809 706.460, 1098.210 709.271, 1089.064 712.049 C 1082.870 713.930, 1081.941 714.483, 1083.300 715.478 C 1085.968 717.428, 1087 721.655, 1087 730.631 C 1087 743.322, 1087.392 743, 1071.965 743 C 1060.329 743, 1058.988 742.821, 1058.881 741.250 C 1058.816 740.288, 1058.861 729.992, 1058.981 718.371 C 1059.136 703.368, 1058.868 697.036, 1058.055 696.534 C 1057.420 696.142, 1054.589 697.589, 1051.705 699.778 C 1044.085 705.564, 1038.431 708.515, 1030 711.109 C 1025.875 712.378, 1022.311 713.550, 1022.079 713.712 C 1021.848 713.875, 1022.650 715.063, 1023.862 716.354 C 1025.917 718.541, 1026.047 719.503, 1025.783 730.600 L 1025.500 742.500 957.750 742.757 C 920.487 742.898, 889.898 742.898, 889.774 742.757 C 889.649 742.616, 889.312 720.329, 889.024 693.230 L 888.500 643.961 883.347 651.730 C 873.570 666.473, 858.553 680.697, 846.182 686.933 L 841.864 689.110 847.131 691.805 C 856.293 696.493, 856.453 696.971, 856.809 720.790 C 857.080 738.913, 856.920 741.586, 855.496 742.627 C 853.625 743.994, 811.230 743.630, 809.834 742.234 C 809.383 741.783, 808.899 712.900, 808.758 678.049 L 808.500 614.683 804.546 619.592 M 180.500 626 L 185.425 631 251.500 631 L 317.575 631 322.500 626 L 327.425 621 251.500 621 L 175.575 621 180.500 626 M 266.675 639.750 L 225.850 640.023 229.009 644.011 L 232.168 648 357.654 648 L 483.140 648 479.320 643.533 L 475.500 639.066 391.500 639.271 C 345.300 639.384, 289.129 639.600, 266.675 639.750 M 236.843 661.499 L 237.185 667 259.210 667 L 281.234 667 284.867 663.210 C 292.464 655.283, 294.552 656, 263.872 655.999 L 236.500 655.997 236.843 661.499 M 233.698 677.250 C 232.377 679.038, 230.977 681.063, 230.589 681.750 C 230.025 682.747, 258.998 683, 374.011 683 L 518.140 683 514.320 678.533 L 510.500 674.066 373.301 674.033 L 236.102 674 233.698 677.250 M 216.676 694.978 L 211.500 699.957 231.666 699.978 L 251.832 700 254.748 696.250 C 256.352 694.188, 257.991 691.938, 258.391 691.250 C 258.962 690.269, 255.112 690, 240.485 690 L 221.851 690 216.676 694.978 M 769.879 692.431 C 767.894 693.113, 764.802 694.717, 763.007 695.995 C 759.359 698.592, 754.678 707.712, 755.180 711.244 C 755.484 713.391, 755.984 713.514, 765.485 713.789 C 774.009 714.036, 775.655 713.825, 776.735 712.348 C 779.110 709.099, 777.858 693.529, 775.102 692.055 C 774.126 691.532, 772.060 691.681, 769.879 692.431 M 199.104 712.535 C 197.397 714.479, 196 716.279, 196 716.535 C 196 716.791, 276.121 717, 374.047 717 L 552.094 717 548.880 713 L 545.665 709 373.936 709 L 202.207 709 199.104 712.535 M 1317.263 723.022 C 1311.117 726.547, 1305.791 734.504, 1306.234 739.500 L 1306.500 742.500 1316.417 742.788 C 1323.678 742.999, 1326.554 742.731, 1327.152 741.788 C 1328.099 740.296, 1328.294 723.930, 1327.393 721.582 C 1326.479 719.200, 1323.087 719.682, 1317.263 723.022 M 1881.994 722.934 C 1877.712 724.237, 1873.613 726.703, 1870.789 729.675 C 1867.695 732.931, 1864.836 740.116, 1865.929 741.886 C 1866.440 742.711, 1869.842 742.986, 1877.082 742.787 L 1887.500 742.500 1887.790 733.651 C 1887.976 727.987, 1887.662 724.298, 1886.918 723.401 C 1885.633 721.853, 1885.567 721.847, 1881.994 722.934 M 187.772 726.953 C 186.094 728.914, 183 734.422, 183 735.450 C 183 735.753, 195.547 736, 210.881 736 L 238.763 736 239.881 731.557 C 240.497 729.114, 241 726.639, 241 726.057 C 241 725.342, 232.670 725, 215.222 725 C 190.888 725, 189.351 725.109, 187.772 726.953 M 1674.054 734.435 C 1673.399 735.224, 1673.007 737.361, 1673.182 739.185 L 1673.500 742.500 1723.411 742.759 C 1768.789 742.995, 1773.489 742.868, 1775.161 741.354 C 1777.500 739.238, 1777.504 736.766, 1775.171 734.655 C 1773.522 733.162, 1768.531 733, 1724.294 733 C 1682.907 733, 1675.059 733.224, 1674.054 734.435 M 1979.411 735.500 C 1979.066 736.875, 1979.066 739.125, 1979.411 740.500 L 1980.038 743 2030.484 743 C 2079.335 743, 2080.962 742.939, 2081.965 741.066 C 2083.417 738.353, 2083.255 736.398, 2081.429 734.571 C 2080.042 733.185, 2073.987 733, 2029.948 733 L 1980.038 733 1979.411 735.500 M 176.685 747.534 C 175.758 749.478, 175 751.278, 175 751.534 C 175 751.790, 268.016 752, 381.703 752 L 588.406 752 584.500 748 L 580.594 744 379.482 744 L 178.370 744 176.685 747.534 M 169.539 765.182 C 168.692 768.031, 168 770.506, 168 770.682 C 168 770.857, 184.256 771, 204.125 771 L 240.250 771 239.625 767.875 C 239.281 766.156, 239 763.681, 239 762.375 L 239 760 205.039 760 L 171.077 760 169.539 765.182 M 165.053 781.750 C 164.480 783.813, 164.009 785.837, 164.006 786.250 C 164.003 786.663, 267.050 787, 393 787 C 518.950 787, 622 786.749, 622 786.441 C 622 786.134, 620.575 784.109, 618.833 781.941 L 615.665 778 390.880 778 L 166.094 778 165.053 781.750 M 163.667 795.667 C 163.300 796.033, 163 798.508, 163 801.167 L 163 806 209.495 806 L 255.990 806 251.745 800.504 L 247.500 795.008 205.917 795.004 C 183.046 795.002, 164.033 795.300, 163.667 795.667 M 846.450 800.351 C 837.106 804.591, 834.133 817.250, 840.659 825.006 C 847.875 833.582, 859.514 832.981, 866.408 823.677 C 867.971 821.568, 868.500 819.373, 868.500 815 C 868.500 808.724, 866.859 805.477, 861.763 801.672 C 858.453 799.201, 850.498 798.515, 846.450 800.351 M 887.985 801.290 C 877.762 806.696, 876.802 821.298, 886.209 828.310 C 890.115 831.222, 898.504 831.672, 902.968 829.210 C 914.717 822.729, 913.777 805.565, 901.389 800.389 C 896.659 798.413, 892.954 798.662, 887.985 801.290 M 163 818 L 163 822 410.622 822 C 644.591 822, 658.169 821.905, 656.872 820.281 C 656.118 819.336, 654.631 817.536, 653.570 816.281 L 651.639 814 407.320 814 L 163 814 163 818 M 165.225 835.250 C 165.748 838.138, 166.290 840.616, 166.428 840.757 C 166.567 840.898, 197.683 840.898, 235.575 840.757 L 304.470 840.500 296.985 837.576 C 292.868 835.968, 287.613 833.606, 285.308 832.326 L 281.115 830 222.694 830 L 164.273 830 165.225 835.250 M 456 835.500 L 450.568 841 491 841 L 531.432 841 526 835.500 L 520.568 830 491 830 L 461.432 830 456 835.500 M 169.506 851.750 C 169.903 852.712, 170.453 854.288, 170.730 855.250 C 171.208 856.911, 184.546 857, 432.783 857 L 694.333 857 690.417 853.542 L 686.500 850.083 427.643 850.042 C 181.495 850.002, 168.821 850.086, 169.506 851.750 M 1651 861.545 C 1613.948 869.445, 1594.714 897.943, 1605.177 929.441 C 1607.682 936.983, 1611.999 942.996, 1618.434 947.906 C 1630.538 957.142, 1641.548 961.489, 1670.877 968.615 C 1680.984 971.071, 1690.435 973.691, 1691.879 974.438 C 1696.152 976.647, 1698.205 979.635, 1698.745 984.432 C 1699.209 988.549, 1698.954 989.246, 1695.843 992.357 C 1690.275 997.925, 1677.885 999.408, 1665.723 995.961 C 1661.011 994.626, 1655.474 989.849, 1652.986 984.973 C 1651.921 982.885, 1650.085 980.988, 1648.795 980.642 C 1645.229 979.687, 1601.672 979.922, 1600.120 980.905 C 1597.896 982.313, 1599.616 990.002, 1604.209 999.179 C 1614.731 1020.200, 1634.175 1031.341, 1666.856 1035.073 C 1680.041 1036.578, 1695.765 1035.257, 1710.002 1031.447 C 1720.589 1028.613, 1724.779 1026.614, 1731.865 1021.012 C 1744.088 1011.351, 1751.960 995.867, 1751.988 981.434 C 1752.017 966.544, 1747.538 955.491, 1737.835 946.507 C 1728.709 938.058, 1717.976 933.616, 1688 925.881 C 1665.767 920.144, 1660.705 918.345, 1657.560 915.063 C 1652.111 909.375, 1654.833 901.329, 1663.038 898.870 C 1665.050 898.268, 1670.252 897.941, 1674.598 898.145 C 1684.588 898.613, 1689.483 900.986, 1693.053 907.092 L 1695.631 911.500 1721.315 911.767 L 1747 912.034 1747 909.622 C 1747 908.296, 1746.105 904.351, 1745.012 900.855 C 1738.428 879.811, 1720.780 866.111, 1694.309 861.495 C 1683.595 859.626, 1659.870 859.654, 1651 861.545 M 993.933 864.750 C 993.430 870.338, 994.104 906.504, 994.723 907.123 C 995.185 907.585, 1006.349 908.084, 1019.531 908.231 L 1043.500 908.500 1044 969 C 1044.275 1002.275, 1044.864 1030.063, 1045.309 1030.750 C 1046.388 1032.417, 1096.530 1032.569, 1097.557 1030.908 C 1097.928 1030.308, 1098.461 1002.970, 1098.742 970.158 C 1099.062 932.850, 1099.626 910.032, 1100.249 909.250 C 1101.645 907.498, 1147.051 907.451, 1148.800 909.200 C 1149.685 910.085, 1150 919.114, 1150 943.612 C 1150 982.103, 1150.719 987.989, 1156.945 1000.500 C 1161.982 1010.620, 1167.213 1016.658, 1176.005 1022.503 C 1190.032 1031.828, 1207.230 1036.085, 1231 1036.116 C 1253.016 1036.145, 1265.747 1033.651, 1279.500 1026.617 C 1294.155 1019.121, 1304.020 1006.430, 1308.740 989 C 1310.327 983.140, 1310.500 976.692, 1310.500 923.500 L 1310.500 864.500 1284 864.500 L 1257.500 864.500 1257 922.080 L 1256.500 979.660 1253.500 984.580 C 1249.142 991.727, 1241.336 995.508, 1231 995.478 C 1226.875 995.466, 1221.774 994.856, 1219.664 994.122 C 1214.342 992.271, 1209.041 987.335, 1206.648 982 C 1204.692 977.641, 1204.637 975.814, 1204.889 923.500 C 1205.063 887.564, 1204.799 868.580, 1204.100 866.750 L 1203.050 864 1098.525 864 C 1041.036 864, 993.970 864.337, 993.933 864.750 M 1335.244 947.733 L 1335.500 1031.500 1359 1031.782 C 1371.925 1031.937, 1383.577 1031.800, 1384.894 1031.477 L 1387.287 1030.890 1386.632 1005.195 C 1386.272 991.063, 1385.694 971.737, 1385.346 962.250 C 1384.819 947.868, 1384.946 945.002, 1386.107 945.014 C 1387.274 945.026, 1407.478 975.037, 1433.500 1015.412 C 1436.800 1020.532, 1440.682 1026.246, 1442.127 1028.111 L 1444.753 1031.500 1469.715 1031.798 C 1489.268 1032.031, 1494.895 1031.815, 1495.690 1030.798 C 1496.367 1029.930, 1496.504 1002.143, 1496.102 947 L 1495.500 864.500 1470 864.500 L 1444.500 864.500 1444.500 907.164 C 1444.500 930.629, 1444.150 950.179, 1443.722 950.608 C 1442.455 951.881, 1439.852 948.434, 1428.162 930 C 1422.058 920.375, 1410.153 901.700, 1401.705 888.500 L 1386.346 864.500 1360.667 864.233 L 1334.989 863.966 1335.244 947.733 M 1525.018 865.967 C 1524.300 867.309, 1524.050 893.677, 1524.233 949.003 C 1524.466 1019.781, 1524.690 1030.194, 1526 1031.021 C 1528.082 1032.337, 1575.598 1032.286, 1578.066 1030.965 C 1579.953 1029.955, 1580 1028.002, 1580 950.090 C 1580 906.178, 1579.719 868.844, 1579.375 867.125 L 1578.750 864 1552.410 864 C 1527.243 864, 1526.024 864.088, 1525.018 865.967 M 1807.755 865.750 C 1806.091 867.622, 1749 1027.552, 1749 1030.341 C 1749 1031.844, 1751.437 1032, 1774.878 1032 C 1794.360 1032, 1801.011 1031.691, 1801.791 1030.750 C 1802.361 1030.063, 1803.954 1025.500, 1805.330 1020.611 C 1806.707 1015.721, 1808.433 1011.341, 1809.167 1010.876 C 1809.900 1010.411, 1822.243 1010.024, 1836.595 1010.015 C 1866.728 1009.998, 1864.597 1009.274, 1867.461 1020.500 C 1868.443 1024.350, 1869.881 1028.520, 1870.657 1029.767 L 1872.068 1032.033 1898.284 1031.767 L 1924.500 1031.500 1924.383 1029 C 1924.319 1027.625, 1921.022 1017.725, 1917.055 1007 C 1913.089 996.275, 1900.155 960.725, 1888.313 928 C 1876.472 895.275, 1866.146 867.487, 1865.368 866.250 C 1863.958 864.006, 1863.880 864, 1836.632 864 C 1811.870 864, 1809.164 864.164, 1807.755 865.750 M 1937.596 865.547 C 1936.172 866.970, 1936.073 875.166, 1936.592 948.313 C 1936.909 992.966, 1937.341 1030.063, 1937.552 1030.750 C 1938.157 1032.713, 1990.307 1032.540, 1991.942 1030.570 C 1992.852 1029.474, 1992.939 1009.893, 1992.315 946.820 L 1991.500 864.500 1965.338 864.234 C 1942.592 864.002, 1938.969 864.173, 1937.596 865.547 M 2019.207 865.251 C 2017.584 867.206, 2018.717 1030.170, 2020.361 1031.244 C 2020.988 1031.654, 2032.750 1031.879, 2046.500 1031.744 L 2071.500 1031.500 2072 1004 C 2072.275 988.875, 2072.864 975.938, 2073.309 975.250 C 2074.588 973.274, 2101.582 973.549, 2107.715 975.601 C 2118.147 979.091, 2120.004 983.093, 2120.621 1003.413 C 2121.223 1023.227, 2121.832 1028.689, 2123.643 1030.501 C 2124.902 1031.759, 2129.473 1032, 2152.071 1032 C 2177.444 1032, 2179 1031.895, 2179 1030.180 C 2179 1029.180, 2177.948 1027.446, 2176.663 1026.329 C 2174.439 1024.395, 2174.295 1023.474, 2173.681 1007.204 C 2172.931 987.340, 2171.531 976.983, 2168.896 971.806 C 2166.252 966.610, 2160.467 961.280, 2153.823 957.918 C 2146.838 954.383, 2146.088 953.297, 2149.690 951.929 C 2154.889 949.953, 2162.476 943.299, 2165.708 937.879 C 2169.925 930.806, 2172.003 922.425, 2171.988 912.540 C 2171.953 888.530, 2158.218 872.467, 2132.471 866.325 C 2122.763 864.009, 2021.038 863.044, 2019.207 865.251 M 69.195 870 L 64.889 875 316.732 875 L 568.575 875 573.500 870 L 578.425 865 325.962 865 L 73.500 865.001 69.195 870 M 67.500 888 L 71.406 892 399.906 892 L 728.406 892 724.500 888 L 720.594 884 392.094 884 L 63.594 884 67.500 888 M 197.193 901.834 C 197.912 902.842, 199.708 905.092, 201.185 906.834 L 203.871 910 402.148 910 L 600.425 910 595.500 905 L 590.575 900 393.231 900 C 202.041 900, 195.927 900.057, 197.193 901.834 M 83.500 905 L 87.406 909 104.406 909 L 121.406 909 117.500 905 L 113.594 901 96.594 901 L 79.594 901 83.500 905 M 2072.667 905.667 C 2072.300 906.033, 2072 912.953, 2072 921.044 C 2072 933.564, 2072.248 935.960, 2073.668 937.128 C 2074.960 938.191, 2079.360 938.466, 2093.190 938.350 C 2113.273 938.182, 2114.010 937.964, 2118.752 930.799 C 2120.949 927.478, 2121.500 925.494, 2121.500 920.896 C 2121.500 914.449, 2119.659 911.094, 2114.010 907.250 C 2110.873 905.115, 2109.750 905, 2092.019 905 C 2081.742 905, 2073.033 905.300, 2072.667 905.667 M 102.555 923.026 L 106.581 927.052 122.981 926.776 L 139.381 926.500 136.087 922.750 L 132.793 919 115.661 919 L 98.529 919 102.555 923.026 M 1834.102 921.088 C 1833.551 922.415, 1829.885 934.910, 1825.955 948.855 C 1821.034 966.316, 1819.132 974.532, 1819.844 975.244 C 1821.144 976.544, 1851.835 976.565, 1853.134 975.266 C 1854.265 974.135, 1838.647 922.218, 1836.544 920.115 C 1835.292 918.863, 1834.974 918.990, 1834.102 921.088 M 219.296 923.500 L 223.880 927 494.136 927 L 764.392 927 761 923.500 L 757.608 920 486.160 920 L 214.712 920 219.296 923.500 M 119.527 940.455 L 124.500 944.910 141.458 944.955 L 158.416 945 154 940.500 L 149.584 936 132.069 936 L 114.555 936 119.527 940.455 M 240.527 937.328 C 241.612 938.059, 246.100 940.086, 250.500 941.834 L 258.500 945.011 309.161 945.005 L 359.821 945 369.161 940.513 L 378.500 936.026 308.527 936.013 C 250.028 936.002, 238.878 936.218, 240.527 937.328 M 528 936.606 C 528 936.939, 529.388 938.964, 531.084 941.106 L 534.168 945 585.307 945 L 636.445 945 631.473 940.545 L 626.500 936.090 577.250 936.045 C 550.163 936.020, 528 936.273, 528 936.606 M 137.500 958.477 L 141.500 961.925 157.946 961.962 L 174.392 962 171 958.500 L 167.608 955 150.554 955.015 L 133.500 955.030 137.500 958.477 M 545 955.332 C 545 955.514, 547.203 957.091, 549.896 958.836 L 554.792 962.008 676.883 961.754 L 798.973 961.500 795.936 958.250 L 792.899 955 668.949 955 C 600.777 955, 545 955.149, 545 955.332 M 155.500 976 L 160.425 981 177.462 980.989 L 194.500 980.978 189 976.032 L 183.500 971.087 167.038 971.043 L 150.575 971 155.500 976 M 568 971.383 C 568 972.076, 578.618 976.976, 584.521 979.007 C 590.163 980.948, 593.045 981, 695.657 981 C 756.429 981, 801 980.624, 801 980.111 C 801 979.622, 798.871 977.372, 796.270 975.111 L 791.539 971 679.770 971 C 618.296 971, 568 971.172, 568 971.383 M 169 989.804 C 169 990.246, 170.496 992.057, 172.323 993.829 L 175.647 997.050 192.375 996.775 L 209.103 996.500 205.667 992.750 L 202.230 989 185.615 989 C 176.477 989, 169 989.362, 169 989.804 M 714.083 990.397 C 714.313 990.615, 722.879 992.415, 733.119 994.397 L 751.739 998 793.572 998 L 835.406 998 831.500 994 L 827.594 990 770.630 990 C 739.300 990, 713.854 990.179, 714.083 990.397 M 190.060 1010.955 L 195.500 1015.909 202.750 1015.955 L 210 1016 210 1011 L 210 1006 197.310 1006 L 184.619 1006 190.060 1010.955 M 780.083 1006.369 C 780.313 1006.573, 784.208 1009.048, 788.739 1011.869 L 796.978 1017 816.547 1017 L 836.115 1017 831.367 1011.500 L 826.619 1006 803.143 1006 C 790.231 1006, 779.854 1006.166, 780.083 1006.369 M 207 1028.500 C 208.866 1030.425, 210.529 1032, 210.696 1032 C 210.863 1032, 211 1030.425, 211 1028.500 C 211 1025.131, 210.861 1025, 207.304 1025 L 203.608 1025 207 1028.500 M 820.500 1027.481 C 831.162 1032.584, 833.464 1033, 851.037 1033 C 860.367 1033, 867.986 1032.662, 867.968 1032.250 C 867.951 1031.838, 866.848 1030.263, 865.516 1028.750 L 863.096 1026 840.298 1026.023 C 819.750 1026.043, 817.796 1026.187, 820.500 1027.481" stroke="none" fill="#ec1c2c" fill-rule="evenodd"/></svg>